<svg xmlns="http://www.w3.org/2000/svg" xmlns:xlink="http://www.w3.org/1999/xlink" width="468" height="240.002" viewBox="0 0 468 240.002"><defs><linearGradient id="svg-c3b7d1b0a" x1="0.891" y1="0.748" x2="0.087" y2="0.228" gradientUnits="objectBoundingBox"><stop offset="0" stop-color="#2ca4fc"></stop><stop offset="1" stop-color="#2684fc"></stop></linearGradient></defs><g transform="translate(-140 -800)"><g transform="translate(140 800)"><g transform="translate(26.925 20.274)"><g transform="translate(0.601 0.272)"><rect width="404.268" height="219.202" fill="#f5f5f5"></rect></g><g transform="translate(0.601 0.272)"><rect width="404.268" height="18.461" fill="#263238"></rect></g><g transform="translate(7.884 7.468)"><circle cx="2.287" cy="2.287" r="2.287" fill="#fafafa"></circle></g><g transform="translate(16.209 7.468)"><circle cx="2.287" cy="2.287" r="2.287" fill="#fafafa"></circle></g><g transform="translate(24.535 7.468)"><circle cx="2.287" cy="2.287" r="2.287" fill="#fafafa"></circle></g><g transform="translate(0 43.963)"><g transform="translate(0 6.508)"><rect width="14.705" height="169.003" fill="#455a64"></rect></g><g transform="translate(0 0)"><rect width="14.705" height="404.691" transform="translate(0 14.705) rotate(-90)" fill="#455a64"></rect></g><g transform="translate(14.433)"><path d="M87.764,322.242c-.15,0-.273-37.186-.273-83.046,0-45.876.122-83.054.273-83.054s.272,37.178.272,83.054C88.035,285.056,87.914,322.242,87.764,322.242Z" transform="translate(-87.491 -156.142)" fill="#e0e0e0"></path></g><g transform="translate(72.245)"><path d="M143.123,331.654c-.15,0-.272-39.294-.272-87.752,0-48.475.122-87.759.272-87.759s.272,39.284.272,87.759C143.394,292.36,143.273,331.654,143.123,331.654Z" transform="translate(-142.85 -156.142)" fill="#e0e0e0"></path></g><g transform="translate(133.572 0.58)"><path d="M201.846,331.629c-.15,0-.272-39.163-.272-87.462,0-48.315.121-87.47.272-87.47s.273,39.155.273,87.47C202.118,292.466,202,331.629,201.846,331.629Z" transform="translate(-201.574 -156.697)" fill="#e0e0e0"></path></g><g transform="translate(193.447 0.58)"><g transform="translate(0)"><path d="M259.18,331.629c-.15,0-.272-39.163-.272-87.462,0-48.315.121-87.47.272-87.47s.272,39.155.272,87.47C259.451,292.466,259.33,331.629,259.18,331.629Z" transform="translate(-258.908 -156.697)" fill="#e0e0e0"></path></g></g><g transform="translate(254.732)"><path d="M317.865,331.654c-.15,0-.273-39.294-.273-87.752,0-48.475.122-87.759.273-87.759s.272,39.284.272,87.759C318.136,292.36,318.014,331.654,317.865,331.654Z" transform="translate(-317.592 -156.142)" fill="#e0e0e0"></path></g><g transform="translate(316.018)"><path d="M376.548,331.654c-.15,0-.271-39.294-.271-87.752,0-48.475.121-87.759.271-87.759s.272,39.284.272,87.759C376.82,292.36,376.7,331.654,376.548,331.654Z" transform="translate(-376.277 -156.142)" fill="#e0e0e0"></path></g><g transform="translate(377.303 0.58)"><path d="M435.233,331.629c-.15,0-.271-39.163-.271-87.462,0-48.315.122-87.47.271-87.47s.272,39.155.272,87.47C435.5,292.466,435.383,331.629,435.233,331.629Z" transform="translate(-434.961 -156.697)" fill="#e0e0e0"></path></g><g transform="translate(0.013 27.845)"><path d="M476.135,183.077c0,.15-90.1.271-201.216.271-111.155,0-201.235-.121-201.235-.271s90.08-.272,201.235-.272C386.036,182.8,476.135,182.926,476.135,183.077Z" transform="translate(-73.683 -182.805)" fill="#e0e0e0"></path></g><g transform="translate(0.013 14.434)"><path d="M476.135,170.234c0,.15-90.1.273-201.216.273-111.155,0-201.235-.122-201.235-.273s90.08-.271,201.235-.271C386.036,169.963,476.135,170.084,476.135,170.234Z" transform="translate(-73.683 -169.963)" fill="#e0e0e0"></path></g><g transform="translate(0.013 41.971)"><path d="M476.135,196.6c0,.15-90.1.272-201.216.272-111.155,0-201.235-.121-201.235-.272s90.08-.271,201.235-.271C386.036,196.332,476.135,196.453,476.135,196.6Z" transform="translate(-73.683 -196.332)" fill="#e0e0e0"></path></g><g transform="translate(0.013 56.098)"><path d="M476.135,210.13c0,.15-90.1.273-201.216.273-111.155,0-201.235-.122-201.235-.273s90.08-.271,201.235-.271C386.036,209.859,476.135,209.981,476.135,210.13Z" transform="translate(-73.683 -209.859)" fill="#e0e0e0"></path></g><g transform="translate(0.013 70.224)"><path d="M476.135,223.657c0,.15-90.1.273-201.216.273-111.155,0-201.235-.122-201.235-.273s90.08-.272,201.235-.272C386.036,223.386,476.135,223.508,476.135,223.657Z" transform="translate(-73.683 -223.386)" fill="#e0e0e0"></path></g><g transform="translate(0.013 84.351)"><path d="M476.135,237.186c0,.149-90.1.272-201.216.272-111.155,0-201.235-.122-201.235-.272s90.08-.273,201.235-.273C386.036,236.913,476.135,237.035,476.135,237.186Z" transform="translate(-73.683 -236.913)" fill="#e0e0e0"></path></g><g transform="translate(0.013 98.477)"><path d="M476.135,250.713c0,.15-90.1.272-201.216.272-111.155,0-201.235-.121-201.235-.272s90.08-.273,201.235-.273C386.036,250.44,476.135,250.562,476.135,250.713Z" transform="translate(-73.683 -250.44)" fill="#e0e0e0"></path></g><g transform="translate(0.013 112.604)"><path d="M476.135,264.239c0,.15-90.1.271-201.216.271-111.155,0-201.235-.121-201.235-.271s90.08-.272,201.235-.272C386.036,263.967,476.135,264.089,476.135,264.239Z" transform="translate(-73.683 -263.967)" fill="#e0e0e0"></path></g><g transform="translate(0.013 126.731)"><path d="M476.135,277.766c0,.15-90.1.272-201.216.272-111.155,0-201.235-.121-201.235-.272s90.08-.271,201.235-.271C386.036,277.495,476.135,277.616,476.135,277.766Z" transform="translate(-73.683 -277.495)" fill="#e0e0e0"></path></g><g transform="translate(0.013 140.858)"><path d="M476.135,291.293c0,.15-90.1.272-201.216.272-111.155,0-201.235-.121-201.235-.272s90.08-.272,201.235-.272C386.036,291.022,476.135,291.143,476.135,291.293Z" transform="translate(-73.683 -291.022)" fill="#e0e0e0"></path></g><g transform="translate(0.013 154.984)"><path d="M476.135,304.82c0,.151-90.1.272-201.216.272-111.155,0-201.235-.121-201.235-.272s90.08-.271,201.235-.271C386.036,304.549,476.135,304.67,476.135,304.82Z" transform="translate(-73.683 -304.549)" fill="#e0e0e0"></path></g><g transform="translate(0.013 169.111)"><path d="M476.135,318.347c0,.15-90.1.273-201.216.273-111.155,0-201.235-.122-201.235-.273s90.08-.272,201.235-.272C386.036,318.076,476.135,318.2,476.135,318.347Z" transform="translate(-73.683 -318.076)" fill="#e0e0e0"></path></g><g transform="translate(14.705 14.705)"><rect width="389.986" height="12.81" fill="#f2ea33"></rect></g></g><g transform="translate(116.746 70.241)"><path d="M390.437,181.577c0,.15-45.888.272-102.482.272-56.614,0-102.493-.122-102.493-.272s45.879-.272,102.493-.272C344.549,181.3,390.437,181.427,390.437,181.577Z" transform="translate(-185.462 -181.305)" fill="#fafafa"></path></g><g transform="translate(84.799 78.087)"><path d="M411.208,189.089c0,.15-57.387.273-128.162.273-70.8,0-128.175-.122-128.175-.273s57.375-.272,128.175-.272C353.82,188.818,411.208,188.94,411.208,189.089Z" transform="translate(-154.871 -188.818)" fill="#fafafa"></path></g><g transform="translate(72.518 100.332)"><rect width="121.201" height="14.127" fill="#e8505b"></rect></g><g transform="translate(72.518 112.892)"><rect width="121.201" height="59.619" fill="#ebebeb"></rect></g><g transform="translate(79.12 120.625)"><path d="M194.1,229.824c0,.149-10,.272-22.335.272s-22.336-.122-22.336-.272,10-.273,22.336-.273S194.1,229.673,194.1,229.824Z" transform="translate(-149.433 -229.551)" fill="#263238"></path></g><g transform="translate(79.12 136.133)"><path d="M176.266,244.673c0,.15-6.007.273-13.415.273s-13.417-.122-13.417-.273,6.006-.272,13.417-.272S176.266,244.523,176.266,244.673Z" transform="translate(-149.433 -244.401)" fill="#263238"></path></g><g transform="translate(79.12 147.429)"><path d="M198.421,255.489c0,.15-10.966.272-24.492.272s-24.5-.122-24.5-.272,10.965-.272,24.5-.272S198.421,255.338,198.421,255.489Z" transform="translate(-149.433 -255.217)" fill="#263238"></path></g><g transform="translate(79.12 124.838)"><path d="M176.266,233.858c0,.149-6.007.272-13.415.272s-13.417-.122-13.417-.272,6.006-.273,13.417-.273S176.266,233.707,176.266,233.858Z" transform="translate(-149.433 -233.585)" fill="#263238"></path></g><g transform="translate(174.971 120.625)"><g transform="translate(0)"><path d="M255.464,229.824a47.047,47.047,0,0,1-7.123.272,47.055,47.055,0,0,1-7.124-.272,46.817,46.817,0,0,1,7.124-.273A46.81,46.81,0,0,1,255.464,229.824Z" transform="translate(-241.216 -229.551)" fill="#263238"></path></g></g><g transform="translate(174.971 133.31)"><g transform="translate(0)"><path d="M255.464,241.968a46.819,46.819,0,0,1-7.123.273,46.827,46.827,0,0,1-7.124-.273,47.058,47.058,0,0,1,7.124-.272A47.051,47.051,0,0,1,255.464,241.968Z" transform="translate(-241.216 -241.697)" fill="#263238"></path></g></g><g transform="translate(174.971 147.429)"><g transform="translate(0)"><path d="M255.464,255.489a46.824,46.824,0,0,1-7.123.272,46.832,46.832,0,0,1-7.124-.272,46.874,46.874,0,0,1,7.124-.272A46.866,46.866,0,0,1,255.464,255.489Z" transform="translate(-241.216 -255.217)" fill="#263238"></path></g></g><g transform="translate(165.906 164.692)"><g transform="translate(0)"><path d="M255.065,272.019c0,.15-5.043.273-11.264.273s-11.265-.122-11.265-.273,5.042-.271,11.265-.271S255.065,271.869,255.065,272.019Z" transform="translate(-232.536 -271.748)" fill="#263238"></path></g></g><g transform="translate(133.572 113.944)"><path d="M201.846,280.691c-.15,0-.272-12.882-.272-28.768s.121-28.77.272-28.77.273,12.878.273,28.77S202,280.691,201.846,280.691Z" transform="translate(-201.574 -223.153)" fill="#e0e0e0"></path></g><g transform="translate(132.855 155.312)"><path d="M260.737,263.039c0,.149-13.4.271-29.924.271s-29.926-.122-29.926-.271,13.4-.273,29.926-.273S260.737,262.888,260.737,263.039Z" transform="translate(-200.887 -262.766)" fill="#e0e0e0"></path></g><g transform="translate(72.518 198.693)"><rect width="121.201" height="14.652" fill="#f5f5f5"></rect></g><g transform="translate(72.318 185.092)"><rect width="121.4" height="14.127" fill="#e8505b"></rect></g><g transform="translate(78.058 206.47)"><path d="M199.492,312.025c0,.15-11.435.272-25.537.272s-25.539-.122-25.539-.272,11.432-.272,25.539-.272S199.492,311.875,199.492,312.025Z" transform="translate(-148.416 -311.753)" fill="#263238"></path></g><g transform="translate(165.906 205.748)"><g transform="translate(0)"><path d="M255.065,311.332c0,.15-5.043.273-11.264.273s-11.265-.122-11.265-.273,5.042-.271,11.265-.271S255.065,311.182,255.065,311.332Z" transform="translate(-232.536 -311.061)" fill="#263238"></path></g></g><g transform="translate(257.961 149.268)"><rect width="10.489" height="35.57" fill="#e8505b"></rect></g><g transform="translate(321.662 155.727)"><rect width="10.489" height="29.111" fill="#e8505b"></rect></g><g transform="translate(364.13 163.862)"><rect width="10.489" height="20.976" fill="#263238"></rect></g><g transform="translate(279.195 127.452)"><rect width="10.489" height="57.386" fill="#455a64"></rect></g><g transform="translate(300.428 127.452)"><rect width="10.489" height="57.386" fill="#263238"></rect></g><g transform="translate(342.896 114.205)"><rect width="10.489" height="70.633" fill="#455a64"></rect></g><g transform="translate(11.483 25.191)"><rect width="9.3" height="9.3" fill="#e8505b"></rect></g><g transform="translate(15.862 28.215)"><path d="M99.2,151.407H88.859V141.063H99.2Zm-9.3-1.044h8.255v-8.255H89.9Z" transform="translate(-88.859 -141.063)" fill="#e8505b"></path></g><g transform="translate(39.826 27.661)"><rect width="8.691" height="8.691" fill="#e0e0e0"></rect></g><g transform="translate(53.95 27.661)"><rect width="8.691" height="8.691" fill="#e0e0e0"></rect></g><g transform="translate(68.073 27.661)"><rect width="8.691" height="8.691" fill="#e0e0e0"></rect></g><g transform="translate(82.196 27.661)"><rect width="8.691" height="8.691" fill="#e0e0e0"></rect></g><g transform="translate(96.319 27.661)"><rect width="8.691" height="8.691" fill="#e0e0e0"></rect></g><g transform="translate(117.933 27.571)"><rect width="91.839" height="8.87" fill="#e0e0e0"></rect></g><g transform="translate(222.376 27.571)"><rect width="91.839" height="8.87" fill="#e0e0e0"></rect></g><g transform="translate(325.51 27.571)"><rect width="79.181" height="8.87" fill="#e0e0e0"></rect></g><g transform="translate(0.329)"><path d="M478.526,333.519c0-1.651-.079-84.363-.207-219.2l.206.206-404.237.066h-.029l.272-.271c-.006,77.451-.013,151.6-.018,219.2l-.254-.254,404.268.255-404.268.254H74v-.255c-.005-67.6-.012-141.75-.018-219.2v-.273h.3l404.237.066h.207v.207C478.606,249.156,478.527,331.869,478.526,333.519Z" transform="translate(-73.986 -114.045)" fill="#263238"></path></g></g><g transform="translate(0.601 0.272)"><rect width="404.268" height="219.202" fill="#f5f5f5"></rect></g><g transform="translate(0.601 0.272)"><rect width="404.268" height="18.461" fill="#263238"></rect></g><g transform="translate(7.884 7.468)"><circle cx="2.287" cy="2.287" r="2.287" fill="#fafafa"></circle></g><g transform="translate(16.209 7.468)"><circle cx="2.287" cy="2.287" r="2.287" fill="#fafafa"></circle></g><g transform="translate(24.535 7.468)"><circle cx="2.287" cy="2.287" r="2.287" fill="#fafafa"></circle></g><g transform="translate(0 43.962)"><g transform="translate(0 6.508)"><rect width="14.705" height="169.003" fill="#455a64"></rect></g><g transform="translate(0 0)"><rect width="14.705" height="404.691" transform="translate(0 14.705) rotate(-90)" fill="#455a64"></rect></g><g transform="translate(14.433 0)"><path d="M61.982,305.281c-.15,0-.273-37.185-.273-83.045,0-45.876.122-83.054.273-83.054s.272,37.178.272,83.054C62.253,268.1,62.132,305.281,61.982,305.281Z" transform="translate(-61.709 -139.182)" fill="#e0e0e0"></path></g><g transform="translate(72.246 0)"><path d="M117.341,314.693c-.15,0-.272-39.293-.272-87.751,0-48.475.121-87.759.272-87.759s.272,39.284.272,87.759C117.612,275.4,117.491,314.693,117.341,314.693Z" transform="translate(-117.069 -139.182)" fill="#e0e0e0"></path></g><g transform="translate(133.572 0.579)"><path d="M176.063,314.668c-.149,0-.272-39.163-.272-87.462,0-48.315.122-87.47.272-87.47s.273,39.155.273,87.47C176.336,275.5,176.214,314.668,176.063,314.668Z" transform="translate(-175.792 -139.736)" fill="#e0e0e0"></path></g><g transform="translate(193.447 0.579)"><path d="M233.4,314.668c-.15,0-.271-39.163-.271-87.462,0-48.315.121-87.47.271-87.47s.273,39.155.273,87.47C233.67,275.5,233.548,314.668,233.4,314.668Z" transform="translate(-233.126 -139.736)" fill="#e0e0e0"></path></g><g transform="translate(254.732 0)"><path d="M292.083,314.693c-.15,0-.273-39.293-.273-87.751,0-48.475.122-87.759.273-87.759s.272,39.284.272,87.759C292.354,275.4,292.232,314.693,292.083,314.693Z" transform="translate(-291.81 -139.182)" fill="#e0e0e0"></path></g><g transform="translate(316.018 0)"><path d="M350.766,314.693c-.15,0-.271-39.293-.271-87.751,0-48.475.121-87.759.271-87.759s.272,39.284.272,87.759C351.038,275.4,350.917,314.693,350.766,314.693Z" transform="translate(-350.495 -139.182)" fill="#e0e0e0"></path></g><g transform="translate(377.303 0.579)"><path d="M409.451,314.668c-.15,0-.273-39.163-.273-87.462,0-48.315.122-87.47.273-87.47s.272,39.155.272,87.47C409.723,275.5,409.6,314.668,409.451,314.668Z" transform="translate(-409.179 -139.736)" fill="#e0e0e0"></path></g><g transform="translate(0.013 27.844)"><path d="M450.353,166.117c0,.15-90.1.272-201.217.272-111.155,0-201.235-.121-201.235-.272s90.08-.273,201.235-.273C360.254,165.844,450.353,165.966,450.353,166.117Z" transform="translate(-47.901 -165.844)" fill="#e0e0e0"></path></g><g transform="translate(0.013 14.434)"><path d="M450.353,153.275c0,.15-90.1.272-201.217.272-111.155,0-201.235-.121-201.235-.272S137.981,153,249.136,153C360.254,153,450.353,153.124,450.353,153.275Z" transform="translate(-47.901 -153.003)" fill="#e0e0e0"></path></g><g transform="translate(0.013 41.972)"><path d="M450.353,179.643c0,.15-90.1.272-201.217.272-111.155,0-201.235-.121-201.235-.272s90.08-.272,201.235-.272C360.254,179.372,450.353,179.493,450.353,179.643Z" transform="translate(-47.901 -179.372)" fill="#e0e0e0"></path></g><g transform="translate(0.013 56.098)"><path d="M450.353,193.17c0,.15-90.1.272-201.217.272-111.155,0-201.235-.121-201.235-.272s90.08-.272,201.235-.272C360.254,192.9,450.353,193.02,450.353,193.17Z" transform="translate(-47.901 -192.899)" fill="#e0e0e0"></path></g><g transform="translate(0.013 70.225)"><path d="M450.353,206.7c0,.15-90.1.273-201.217.273-111.155,0-201.235-.122-201.235-.273s90.08-.272,201.235-.272C360.254,206.426,450.353,206.547,450.353,206.7Z" transform="translate(-47.901 -206.426)" fill="#e0e0e0"></path></g><g transform="translate(0.013 84.351)"><path d="M450.353,220.225c0,.15-90.1.273-201.217.273-111.155,0-201.235-.122-201.235-.273s90.08-.272,201.235-.272C360.254,219.953,450.353,220.074,450.353,220.225Z" transform="translate(-47.901 -219.953)" fill="#e0e0e0"></path></g><g transform="translate(0.013 98.478)"><path d="M450.353,233.751c0,.15-90.1.273-201.217.273-111.155,0-201.235-.122-201.235-.273s90.08-.271,201.235-.271C360.254,233.48,450.353,233.6,450.353,233.751Z" transform="translate(-47.901 -233.48)" fill="#e0e0e0"></path></g><g transform="translate(0.013 112.604)"><path d="M450.353,247.278c0,.15-90.1.273-201.217.273-111.155,0-201.235-.122-201.235-.273s90.08-.272,201.235-.272C360.254,247.007,450.353,247.129,450.353,247.278Z" transform="translate(-47.901 -247.007)" fill="#e0e0e0"></path></g><g transform="translate(0.013 126.731)"><path d="M450.353,260.807c0,.149-90.1.271-201.217.271-111.155,0-201.235-.122-201.235-.271s90.08-.273,201.235-.273C360.254,260.534,450.353,260.656,450.353,260.807Z" transform="translate(-47.901 -260.534)" fill="#e0e0e0"></path></g><g transform="translate(0.013 140.857)"><path d="M450.353,274.333c0,.15-90.1.271-201.217.271-111.155,0-201.235-.121-201.235-.271s90.08-.272,201.235-.272C360.254,274.061,450.353,274.183,450.353,274.333Z" transform="translate(-47.901 -274.061)" fill="#e0e0e0"></path></g><g transform="translate(0.013 154.984)"><path d="M450.353,287.861c0,.15-90.1.271-201.217.271-111.155,0-201.235-.121-201.235-.271s90.08-.273,201.235-.273C360.254,287.588,450.353,287.71,450.353,287.861Z" transform="translate(-47.901 -287.588)" fill="#e0e0e0"></path></g><g transform="translate(0.013 169.111)"><g transform="translate(0 0)"><path d="M450.353,301.387c0,.15-90.1.272-201.217.272-111.155,0-201.235-.121-201.235-.272s90.08-.271,201.235-.271C360.254,301.116,450.353,301.237,450.353,301.387Z" transform="translate(-47.901 -301.116)" fill="#e0e0e0"></path></g></g><g transform="translate(14.705 14.705)"><rect width="389.986" height="12.81" fill="#f2ea1f"></rect></g></g><g transform="translate(133.572 113.944)"><path d="M176.063,263.73c-.149,0-.272-12.881-.272-28.767s.122-28.77.272-28.77.273,12.877.273,28.77S176.214,263.73,176.063,263.73Z" transform="translate(-175.792 -206.193)" fill="#e0e0e0"></path></g><g transform="translate(132.855 155.312)"><path d="M234.955,246.077c0,.15-13.4.273-29.924.273s-29.926-.122-29.926-.273,13.4-.272,29.926-.272S234.955,245.928,234.955,246.077Z" transform="translate(-175.105 -245.806)" fill="#e0e0e0"></path></g><g transform="translate(11.483 25.191)"><rect width="9.3" height="9.3" fill="#2da94f"></rect></g><g transform="translate(15.861 28.215)"><path d="M73.422,134.447H63.077V124.1H73.422Zm-9.3-1.044h8.256v-8.255H64.121Z" transform="translate(-63.077 -124.103)" fill="#2da94f"></path></g><g transform="translate(39.826 27.661)"><rect width="8.691" height="8.691" fill="#e0e0e0"></rect></g><g transform="translate(53.95 27.661)"><rect width="8.691" height="8.691" fill="#e0e0e0"></rect></g><g transform="translate(68.073 27.661)"><rect width="8.691" height="8.691" fill="#e0e0e0"></rect></g><g transform="translate(82.196 27.661)"><rect width="8.691" height="8.691" fill="#e0e0e0"></rect></g><g transform="translate(96.319 27.661)"><rect width="8.691" height="8.691" fill="#e0e0e0"></rect></g><g transform="translate(117.933 27.571)"><rect width="91.839" height="8.87" fill="#e0e0e0"></rect></g><g transform="translate(222.376 27.571)"><rect width="91.839" height="8.87" fill="#e0e0e0"></rect></g><g transform="translate(325.51 27.571)"><rect width="79.181" height="8.87" fill="#e0e0e0"></rect></g><g transform="translate(0.329)"><path d="M452.744,316.558c0-1.65-.079-84.362-.207-219.2l.207.207-404.239.066h-.029l.272-.273c-.006,77.452-.013,151.6-.018,219.2l-.254-.254,404.268.254-404.268.255h-.255v-.255c-.005-67.6-.011-141.75-.018-219.2v-.272h.3l404.239.066h.206v.206C452.824,232.2,452.745,314.909,452.744,316.558Z" transform="translate(-48.204 -97.085)" fill="#263238"></path></g><path d="M0,3.35c0-.112,6.24-.2,13.939-.2s13.937.092,13.937.2-6.241.2-13.937.2S0,3.461,0,3.35ZM132.144,1.786c0-.112,6.239-.2,13.939-.2s13.937.091,13.937.2-6.241.2-13.937.2S132.144,1.9,132.144,1.786ZM183.9,1.319c0-.113,11.877-.2,26.533-.2s26.53.09,26.53.2-11.88.2-26.53.2S183.9,1.432,183.9,1.319Zm-124.086-.1c0-.112,11.392-.2,25.449-.2s25.447.091,25.447.2-11.395.2-25.447.2S59.812,1.335,59.812,1.222ZM319.959,1.2a67.869,67.869,0,0,1,7.4-.2,67.873,67.873,0,0,1,7.4.2,67.453,67.453,0,0,1-7.4.2A67.449,67.449,0,0,1,319.959,1.2Zm-56.768,0a67.87,67.87,0,0,1,7.4-.2,67.849,67.849,0,0,1,7.4.2,67.43,67.43,0,0,1-7.4.2A67.45,67.45,0,0,1,263.191,1.2ZM0,.2C0,.092,10.387,0,23.206,0s23.2.092,23.2.2-10.39.2-23.2.2S0,.316,0,.2Z" transform="translate(16.094 78.501)" fill="#263238"></path><path d="M13.939,4.053c-3.72,0-7.224-.021-9.864-.06-1.283-.019-2.291-.041-3-.065C.716,3.916.437,3.9.248,3.889.141,3.882.061,3.874,0,3.865A.516.516,0,0,1,0,2.834c.06-.009.14-.016.247-.024.189-.013.469-.027.83-.039.706-.024,1.714-.046,3-.065,2.64-.039,6.144-.06,9.864-.06s7.222.021,9.862.06c1.283.019,2.291.041,3,.065.362.012.641.026.83.039.106.008.187.015.247.024a.516.516,0,0,1,0,1.031c-.06.009-.14.016-.247.024-.189.013-.469.027-.83.039-.706.024-1.714.046-3,.065C21.161,4.032,17.659,4.053,13.939,4.053ZM146.083,2.49c-3.724,0-7.227-.021-9.865-.06-1.283-.019-2.291-.041-3-.065-.362-.013-.641-.026-.83-.039-.106-.008-.187-.015-.247-.024a.516.516,0,0,1,0-1.031c.06-.008.14-.016.246-.024.189-.013.468-.026.83-.039.705-.024,1.714-.046,3-.065,2.637-.038,6.14-.059,9.865-.059s7.225.021,9.862.059c1.283.019,2.291.04,3,.065.362.012.641.025.83.039.106.008.187.015.247.024a.516.516,0,0,1,0,1.031c-.06.009-.14.016-.247.024-.189.014-.469.027-.831.039-.706.024-1.714.046-3,.065C153.308,2.469,149.806,2.49,146.083,2.49Zm64.347-.467c-7.091,0-13.756-.021-18.766-.06-2.438-.019-4.353-.04-5.691-.065-.68-.012-1.2-.025-1.555-.038-.186-.007-.324-.014-.421-.021-.059,0-.1-.009-.14-.015a.507.507,0,0,1,0-1.01c.036-.005.08-.01.14-.015.1-.007.235-.014.421-.021.352-.013.875-.026,1.556-.038,1.337-.024,3.252-.046,5.691-.064,5-.038,11.667-.059,18.766-.059s13.76.021,18.763.059c2.439.019,4.354.04,5.691.064.681.012,1.2.025,1.556.038.186.007.324.014.421.021.059,0,.1.009.14.015a.507.507,0,0,1,0,1.01c-.036.005-.08.01-.14.015-.1.007-.235.014-.421.021-.352.013-.875.026-1.556.038-1.338.024-3.253.046-5.691.065C224.183,2,217.52,2.023,210.431,2.023Zm-125.169-.1c-6.809,0-13.2-.021-18-.059-2.34-.019-4.176-.04-5.459-.064-.653-.012-1.155-.025-1.493-.038-.179-.007-.312-.014-.405-.021-.058,0-.1-.009-.137-.015a.507.507,0,0,1,0-1.009C59.8.712,59.846.707,59.9.7,60,.7,60.131.689,60.31.682c.338-.013.84-.026,1.493-.038C63.086.619,64.922.6,67.261.578c4.805-.038,11.2-.059,18-.059s13.191.021,18,.059c2.339.019,4.176.04,5.459.065.653.012,1.155.025,1.493.038.179.007.312.014.405.021.058,0,.1.009.137.015a.507.507,0,0,1,0,1.009c-.036.006-.079.01-.137.015-.094.007-.226.014-.405.021-.338.013-.84.026-1.493.038-1.283.024-3.12.046-5.459.064C98.46,1.9,92.068,1.925,85.261,1.925Zm242.1-.018c-1.983,0-3.846-.021-5.248-.06-.686-.019-1.226-.041-1.6-.066-.2-.013-.355-.027-.465-.042a1.381,1.381,0,0,1-.176-.033.515.515,0,0,1,0-1.007,1.385,1.385,0,0,1,.176-.033c.11-.015.262-.028.465-.041.379-.024.919-.046,1.6-.065,1.4-.038,3.267-.06,5.248-.06s3.843.021,5.247.06c.686.019,1.226.041,1.6.065.2.013.355.027.465.041a1.384,1.384,0,0,1,.176.033.515.515,0,0,1,0,1.007,1.374,1.374,0,0,1-.176.033c-.11.015-.262.028-.465.042-.379.025-.919.047-1.6.066C331.206,1.885,329.342,1.907,327.361,1.907Zm-56.768,0c-1.983,0-3.846-.021-5.248-.06-.686-.019-1.226-.041-1.6-.066-.2-.013-.355-.027-.465-.042a1.381,1.381,0,0,1-.176-.033A.515.515,0,0,1,263.1.7a1.385,1.385,0,0,1,.176-.033c.11-.015.262-.028.465-.041.379-.024.919-.046,1.6-.065,1.4-.038,3.267-.06,5.248-.06s3.843.021,5.246.06c.686.019,1.225.041,1.6.065.2.013.355.027.465.041a1.384,1.384,0,0,1,.176.033.515.515,0,0,1,0,1.007,1.378,1.378,0,0,1-.176.033c-.11.015-.262.028-.465.042-.379.025-.919.047-1.6.066C274.438,1.885,272.575,1.907,270.593,1.907ZM23.206.907C17,.907,11.173.886,6.791.847,4.658.829,2.983.807,1.813.783,1.217.77.758.757.45.744.285.737.163.73.077.722c-.055,0-.1-.01-.132-.016A.508.508,0,0,1-.5.2.508.508,0,0,1-.055-.3C-.02-.306.022-.311.077-.315.164-.323.286-.33.45-.337c.308-.013.767-.026,1.363-.038C2.984-.4,4.659-.421,6.791-.44,11.185-.479,17.014-.5,23.206-.5s12.017.021,16.411.06c2.132.019,3.807.04,4.979.065.6.012,1.055.025,1.363.038.164.007.286.014.373.021.055,0,.1.01.132.016a.507.507,0,0,1,0,1.006c-.035.006-.077.011-.132.016-.087.007-.209.015-.373.022C45.65.757,45.191.77,44.6.783c-1.171.024-2.846.046-4.979.065C35.234.886,29.406.907,23.206.907Z" transform="translate(16.094 78.501)" fill="rgba(0,0,0,0)"></path><path d="M0,3.35c0-.112,6.24-.2,13.939-.2s13.937.092,13.937.2-6.241.2-13.937.2S0,3.461,0,3.35ZM132.144,1.786c0-.112,6.239-.2,13.939-.2s13.937.091,13.937.2-6.241.2-13.937.2S132.144,1.9,132.144,1.786ZM183.9,1.319c0-.113,11.877-.2,26.533-.2s26.53.09,26.53.2-11.88.2-26.53.2S183.9,1.432,183.9,1.319Zm-124.086-.1c0-.112,11.392-.2,25.449-.2s25.447.091,25.447.2-11.395.2-25.447.2S59.812,1.335,59.812,1.222ZM319.959,1.2a67.869,67.869,0,0,1,7.4-.2,67.873,67.873,0,0,1,7.4.2,67.453,67.453,0,0,1-7.4.2A67.449,67.449,0,0,1,319.959,1.2Zm-56.768,0a67.87,67.87,0,0,1,7.4-.2,67.849,67.849,0,0,1,7.4.2,67.43,67.43,0,0,1-7.4.2A67.45,67.45,0,0,1,263.191,1.2ZM0,.2C0,.092,10.387,0,23.206,0s23.2.092,23.2.2-10.39.2-23.2.2S0,.316,0,.2Z" transform="translate(16.094 91.965)" fill="#263238"></path><path d="M13.939,4.053c-3.72,0-7.224-.021-9.864-.06-1.283-.019-2.291-.041-3-.065C.716,3.916.437,3.9.248,3.889.141,3.882.061,3.874,0,3.865A.516.516,0,0,1,0,2.834c.06-.009.14-.016.247-.024.189-.013.469-.027.83-.039.706-.024,1.714-.046,3-.065,2.64-.039,6.144-.06,9.864-.06s7.222.021,9.862.06c1.283.019,2.291.041,3,.065.362.012.641.026.83.039.106.008.187.015.247.024a.516.516,0,0,1,0,1.031c-.06.009-.14.016-.247.024-.189.013-.469.027-.83.039-.706.024-1.714.046-3,.065C21.161,4.032,17.659,4.053,13.939,4.053ZM146.083,2.49c-3.724,0-7.227-.021-9.865-.06-1.283-.019-2.291-.041-3-.065-.362-.013-.641-.026-.83-.039-.106-.008-.187-.015-.247-.024a.516.516,0,0,1,0-1.031c.06-.008.14-.016.246-.024.189-.013.468-.026.83-.039.705-.024,1.714-.046,3-.065,2.637-.038,6.14-.059,9.865-.059s7.225.021,9.862.059c1.283.019,2.291.04,3,.065.362.012.641.025.83.039.106.008.187.015.247.024a.516.516,0,0,1,0,1.031c-.06.009-.14.016-.247.024-.189.014-.469.027-.831.039-.706.024-1.714.046-3,.065C153.308,2.469,149.806,2.49,146.083,2.49Zm64.347-.467c-7.091,0-13.756-.021-18.766-.06-2.438-.019-4.353-.04-5.691-.065-.68-.012-1.2-.025-1.555-.038-.186-.007-.324-.014-.421-.021-.059,0-.1-.009-.14-.015a.507.507,0,0,1,0-1.01c.036-.005.08-.01.14-.015.1-.007.235-.014.421-.021.352-.013.875-.026,1.556-.038,1.337-.024,3.252-.046,5.691-.064,5-.038,11.667-.059,18.766-.059s13.76.021,18.763.059c2.439.019,4.354.04,5.691.064.681.012,1.2.025,1.556.038.186.007.324.014.421.021.059,0,.1.009.14.015a.507.507,0,0,1,0,1.01c-.036.005-.08.01-.14.015-.1.007-.235.014-.421.021-.352.013-.875.026-1.556.038-1.338.024-3.253.046-5.691.065C224.183,2,217.52,2.023,210.431,2.023Zm-125.169-.1c-6.809,0-13.2-.021-18-.059-2.34-.019-4.176-.04-5.459-.064-.653-.012-1.155-.025-1.493-.038-.179-.007-.312-.014-.405-.021-.058,0-.1-.009-.137-.015a.507.507,0,0,1,0-1.009C59.8.712,59.846.707,59.9.7,60,.7,60.131.689,60.31.682c.338-.013.84-.026,1.493-.038C63.086.619,64.922.6,67.261.578c4.805-.038,11.2-.059,18-.059s13.191.021,18,.059c2.339.019,4.176.04,5.459.065.653.012,1.155.025,1.493.038.179.007.312.014.405.021.058,0,.1.009.137.015a.507.507,0,0,1,0,1.009c-.036.006-.079.01-.137.015-.094.007-.226.014-.405.021-.338.013-.84.026-1.493.038-1.283.024-3.12.046-5.459.064C98.46,1.9,92.068,1.925,85.261,1.925Zm242.1-.018c-1.983,0-3.846-.021-5.248-.06-.686-.019-1.226-.041-1.6-.066-.2-.013-.355-.027-.465-.042a1.381,1.381,0,0,1-.176-.033.515.515,0,0,1,0-1.007,1.385,1.385,0,0,1,.176-.033c.11-.015.262-.028.465-.041.379-.024.919-.046,1.6-.065,1.4-.038,3.267-.06,5.248-.06s3.843.021,5.247.06c.686.019,1.226.041,1.6.065.2.013.355.027.465.041a1.384,1.384,0,0,1,.176.033.515.515,0,0,1,0,1.007,1.374,1.374,0,0,1-.176.033c-.11.015-.262.028-.465.042-.379.025-.919.047-1.6.066C331.206,1.885,329.342,1.907,327.361,1.907Zm-56.768,0c-1.983,0-3.846-.021-5.248-.06-.686-.019-1.226-.041-1.6-.066-.2-.013-.355-.027-.465-.042a1.381,1.381,0,0,1-.176-.033A.515.515,0,0,1,263.1.7a1.385,1.385,0,0,1,.176-.033c.11-.015.262-.028.465-.041.379-.024.919-.046,1.6-.065,1.4-.038,3.267-.06,5.248-.06s3.843.021,5.246.06c.686.019,1.225.041,1.6.065.2.013.355.027.465.041a1.384,1.384,0,0,1,.176.033.515.515,0,0,1,0,1.007,1.378,1.378,0,0,1-.176.033c-.11.015-.262.028-.465.042-.379.025-.919.047-1.6.066C274.438,1.885,272.575,1.907,270.593,1.907ZM23.206.907C17,.907,11.173.886,6.791.847,4.658.829,2.983.807,1.813.783,1.217.77.758.757.45.744.285.737.163.73.077.722c-.055,0-.1-.01-.132-.016A.508.508,0,0,1-.5.2.508.508,0,0,1-.055-.3C-.02-.306.022-.311.077-.315.164-.323.286-.33.45-.337c.308-.013.767-.026,1.363-.038C2.984-.4,4.659-.421,6.791-.44,11.185-.479,17.014-.5,23.206-.5s12.017.021,16.411.06c2.132.019,3.807.04,4.979.065.6.012,1.055.025,1.363.038.164.007.286.014.373.021.055,0,.1.01.132.016a.507.507,0,0,1,0,1.006c-.035.006-.077.011-.132.016-.087.007-.209.015-.373.022C45.65.757,45.191.77,44.6.783c-1.171.024-2.846.046-4.979.065C35.234.886,29.406.907,23.206.907Z" transform="translate(16.094 91.965)" fill="rgba(0,0,0,0)"></path><path d="M0,3.35c0-.112,6.24-.2,13.939-.2s13.937.092,13.937.2-6.241.2-13.937.2S0,3.461,0,3.35ZM132.144,1.786c0-.112,6.239-.2,13.939-.2s13.937.091,13.937.2-6.241.2-13.937.2S132.144,1.9,132.144,1.786ZM183.9,1.319c0-.113,11.877-.2,26.533-.2s26.53.09,26.53.2-11.88.2-26.53.2S183.9,1.432,183.9,1.319Zm-124.086-.1c0-.112,11.392-.2,25.449-.2s25.447.091,25.447.2-11.395.2-25.447.2S59.812,1.335,59.812,1.222ZM319.959,1.2a67.869,67.869,0,0,1,7.4-.2,67.873,67.873,0,0,1,7.4.2,67.453,67.453,0,0,1-7.4.2A67.449,67.449,0,0,1,319.959,1.2Zm-56.768,0a67.87,67.87,0,0,1,7.4-.2,67.849,67.849,0,0,1,7.4.2,67.43,67.43,0,0,1-7.4.2A67.45,67.45,0,0,1,263.191,1.2ZM0,.2C0,.092,10.387,0,23.206,0s23.2.092,23.2.2-10.39.2-23.2.2S0,.316,0,.2Z" transform="translate(16.094 106.775)" fill="#263238"></path><path d="M13.939,4.053c-3.72,0-7.224-.021-9.864-.06-1.283-.019-2.291-.041-3-.065C.716,3.916.437,3.9.248,3.889.141,3.882.061,3.874,0,3.865A.516.516,0,0,1,0,2.834c.06-.009.14-.016.247-.024.189-.013.469-.027.83-.039.706-.024,1.714-.046,3-.065,2.64-.039,6.144-.06,9.864-.06s7.222.021,9.862.06c1.283.019,2.291.041,3,.065.362.012.641.026.83.039.106.008.187.015.247.024a.516.516,0,0,1,0,1.031c-.06.009-.14.016-.247.024-.189.013-.469.027-.83.039-.706.024-1.714.046-3,.065C21.161,4.032,17.659,4.053,13.939,4.053ZM146.083,2.49c-3.724,0-7.227-.021-9.865-.06-1.283-.019-2.291-.041-3-.065-.362-.013-.641-.026-.83-.039-.106-.008-.187-.015-.247-.024a.516.516,0,0,1,0-1.031c.06-.008.14-.016.246-.024.189-.013.468-.026.83-.039.705-.024,1.714-.046,3-.065,2.637-.038,6.14-.059,9.865-.059s7.225.021,9.862.059c1.283.019,2.291.04,3,.065.362.012.641.025.83.039.106.008.187.015.247.024a.516.516,0,0,1,0,1.031c-.06.009-.14.016-.247.024-.189.014-.469.027-.831.039-.706.024-1.714.046-3,.065C153.308,2.469,149.806,2.49,146.083,2.49Zm64.347-.467c-7.091,0-13.756-.021-18.766-.06-2.438-.019-4.353-.04-5.691-.065-.68-.012-1.2-.025-1.555-.038-.186-.007-.324-.014-.421-.021-.059,0-.1-.009-.14-.015a.507.507,0,0,1,0-1.01c.036-.005.08-.01.14-.015.1-.007.235-.014.421-.021.352-.013.875-.026,1.556-.038,1.337-.024,3.252-.046,5.691-.064,5-.038,11.667-.059,18.766-.059s13.76.021,18.763.059c2.439.019,4.354.04,5.691.064.681.012,1.2.025,1.556.038.186.007.324.014.421.021.059,0,.1.009.14.015a.507.507,0,0,1,0,1.01c-.036.005-.08.01-.14.015-.1.007-.235.014-.421.021-.352.013-.875.026-1.556.038-1.338.024-3.253.046-5.691.065C224.183,2,217.52,2.023,210.431,2.023Zm-125.169-.1c-6.809,0-13.2-.021-18-.059-2.34-.019-4.176-.04-5.459-.064-.653-.012-1.155-.025-1.493-.038-.179-.007-.312-.014-.405-.021-.058,0-.1-.009-.137-.015a.507.507,0,0,1,0-1.009C59.8.712,59.846.707,59.9.7,60,.7,60.131.689,60.31.682c.338-.013.84-.026,1.493-.038C63.086.619,64.922.6,67.261.578c4.805-.038,11.2-.059,18-.059s13.191.021,18,.059c2.339.019,4.176.04,5.459.065.653.012,1.155.025,1.493.038.179.007.312.014.405.021.058,0,.1.009.137.015a.507.507,0,0,1,0,1.009c-.036.006-.079.01-.137.015-.094.007-.226.014-.405.021-.338.013-.84.026-1.493.038-1.283.024-3.12.046-5.459.064C98.46,1.9,92.068,1.925,85.261,1.925Zm242.1-.018c-1.983,0-3.846-.021-5.248-.06-.686-.019-1.226-.041-1.6-.066-.2-.013-.355-.027-.465-.042a1.381,1.381,0,0,1-.176-.033.515.515,0,0,1,0-1.007,1.385,1.385,0,0,1,.176-.033c.11-.015.262-.028.465-.041.379-.024.919-.046,1.6-.065,1.4-.038,3.267-.06,5.248-.06s3.843.021,5.247.06c.686.019,1.226.041,1.6.065.2.013.355.027.465.041a1.384,1.384,0,0,1,.176.033.515.515,0,0,1,0,1.007,1.374,1.374,0,0,1-.176.033c-.11.015-.262.028-.465.042-.379.025-.919.047-1.6.066C331.206,1.885,329.342,1.907,327.361,1.907Zm-56.768,0c-1.983,0-3.846-.021-5.248-.06-.686-.019-1.226-.041-1.6-.066-.2-.013-.355-.027-.465-.042a1.381,1.381,0,0,1-.176-.033A.515.515,0,0,1,263.1.7a1.385,1.385,0,0,1,.176-.033c.11-.015.262-.028.465-.041.379-.024.919-.046,1.6-.065,1.4-.038,3.267-.06,5.248-.06s3.843.021,5.246.06c.686.019,1.225.041,1.6.065.2.013.355.027.465.041a1.384,1.384,0,0,1,.176.033.515.515,0,0,1,0,1.007,1.378,1.378,0,0,1-.176.033c-.11.015-.262.028-.465.042-.379.025-.919.047-1.6.066C274.438,1.885,272.575,1.907,270.593,1.907ZM23.206.907C17,.907,11.173.886,6.791.847,4.658.829,2.983.807,1.813.783,1.217.77.758.757.45.744.285.737.163.73.077.722c-.055,0-.1-.01-.132-.016A.508.508,0,0,1-.5.2.508.508,0,0,1-.055-.3C-.02-.306.022-.311.077-.315.164-.323.286-.33.45-.337c.308-.013.767-.026,1.363-.038C2.984-.4,4.659-.421,6.791-.44,11.185-.479,17.014-.5,23.206-.5s12.017.021,16.411.06c2.132.019,3.807.04,4.979.065.6.012,1.055.025,1.363.038.164.007.286.014.373.021.055,0,.1.01.132.016a.507.507,0,0,1,0,1.006c-.035.006-.077.011-.132.016-.087.007-.209.015-.373.022C45.65.757,45.191.77,44.6.783c-1.171.024-2.846.046-4.979.065C35.234.886,29.406.907,23.206.907Z" transform="translate(16.094 106.775)" fill="rgba(0,0,0,0)"></path><path d="M0,3.35c0-.112,6.24-.2,13.939-.2s13.937.092,13.937.2-6.241.2-13.937.2S0,3.461,0,3.35ZM132.144,1.786c0-.112,6.239-.2,13.939-.2s13.937.091,13.937.2-6.241.2-13.937.2S132.144,1.9,132.144,1.786ZM183.9,1.319c0-.113,11.877-.2,26.533-.2s26.53.09,26.53.2-11.88.2-26.53.2S183.9,1.432,183.9,1.319Zm-124.086-.1c0-.112,11.392-.2,25.449-.2s25.447.091,25.447.2-11.395.2-25.447.2S59.812,1.335,59.812,1.222ZM319.959,1.2a67.869,67.869,0,0,1,7.4-.2,67.873,67.873,0,0,1,7.4.2,67.453,67.453,0,0,1-7.4.2A67.449,67.449,0,0,1,319.959,1.2Zm-56.768,0a67.87,67.87,0,0,1,7.4-.2,67.849,67.849,0,0,1,7.4.2,67.43,67.43,0,0,1-7.4.2A67.45,67.45,0,0,1,263.191,1.2ZM0,.2C0,.092,10.387,0,23.206,0s23.2.092,23.2.2-10.39.2-23.2.2S0,.316,0,.2Z" transform="translate(16.094 120.239)" fill="#263238"></path><path d="M13.939,4.053c-3.72,0-7.224-.021-9.864-.06-1.283-.019-2.291-.041-3-.065C.716,3.916.437,3.9.248,3.889.141,3.882.061,3.874,0,3.865A.516.516,0,0,1,0,2.834c.06-.009.14-.016.247-.024.189-.013.469-.027.83-.039.706-.024,1.714-.046,3-.065,2.64-.039,6.144-.06,9.864-.06s7.222.021,9.862.06c1.283.019,2.291.041,3,.065.362.012.641.026.83.039.106.008.187.015.247.024a.516.516,0,0,1,0,1.031c-.06.009-.14.016-.247.024-.189.013-.469.027-.83.039-.706.024-1.714.046-3,.065C21.161,4.032,17.659,4.053,13.939,4.053ZM146.083,2.49c-3.724,0-7.227-.021-9.865-.06-1.283-.019-2.291-.041-3-.065-.362-.013-.641-.026-.83-.039-.106-.008-.187-.015-.247-.024a.516.516,0,0,1,0-1.031c.06-.008.14-.016.246-.024.189-.013.468-.026.83-.039.705-.024,1.714-.046,3-.065,2.637-.038,6.14-.059,9.865-.059s7.225.021,9.862.059c1.283.019,2.291.04,3,.065.362.012.641.025.83.039.106.008.187.015.247.024a.516.516,0,0,1,0,1.031c-.06.009-.14.016-.247.024-.189.014-.469.027-.831.039-.706.024-1.714.046-3,.065C153.308,2.469,149.806,2.49,146.083,2.49Zm64.347-.467c-7.091,0-13.756-.021-18.766-.06-2.438-.019-4.353-.04-5.691-.065-.68-.012-1.2-.025-1.555-.038-.186-.007-.324-.014-.421-.021-.059,0-.1-.009-.14-.015a.507.507,0,0,1,0-1.01c.036-.005.08-.01.14-.015.1-.007.235-.014.421-.021.352-.013.875-.026,1.556-.038,1.337-.024,3.252-.046,5.691-.064,5-.038,11.667-.059,18.766-.059s13.76.021,18.763.059c2.439.019,4.354.04,5.691.064.681.012,1.2.025,1.556.038.186.007.324.014.421.021.059,0,.1.009.14.015a.507.507,0,0,1,0,1.01c-.036.005-.08.01-.14.015-.1.007-.235.014-.421.021-.352.013-.875.026-1.556.038-1.338.024-3.253.046-5.691.065C224.183,2,217.52,2.023,210.431,2.023Zm-125.169-.1c-6.809,0-13.2-.021-18-.059-2.34-.019-4.176-.04-5.459-.064-.653-.012-1.155-.025-1.493-.038-.179-.007-.312-.014-.405-.021-.058,0-.1-.009-.137-.015a.507.507,0,0,1,0-1.009C59.8.712,59.846.707,59.9.7,60,.7,60.131.689,60.31.682c.338-.013.84-.026,1.493-.038C63.086.619,64.922.6,67.261.578c4.805-.038,11.2-.059,18-.059s13.191.021,18,.059c2.339.019,4.176.04,5.459.065.653.012,1.155.025,1.493.038.179.007.312.014.405.021.058,0,.1.009.137.015a.507.507,0,0,1,0,1.009c-.036.006-.079.01-.137.015-.094.007-.226.014-.405.021-.338.013-.84.026-1.493.038-1.283.024-3.12.046-5.459.064C98.46,1.9,92.068,1.925,85.261,1.925Zm242.1-.018c-1.983,0-3.846-.021-5.248-.06-.686-.019-1.226-.041-1.6-.066-.2-.013-.355-.027-.465-.042a1.381,1.381,0,0,1-.176-.033.515.515,0,0,1,0-1.007,1.385,1.385,0,0,1,.176-.033c.11-.015.262-.028.465-.041.379-.024.919-.046,1.6-.065,1.4-.038,3.267-.06,5.248-.06s3.843.021,5.247.06c.686.019,1.226.041,1.6.065.2.013.355.027.465.041a1.384,1.384,0,0,1,.176.033.515.515,0,0,1,0,1.007,1.374,1.374,0,0,1-.176.033c-.11.015-.262.028-.465.042-.379.025-.919.047-1.6.066C331.206,1.885,329.342,1.907,327.361,1.907Zm-56.768,0c-1.983,0-3.846-.021-5.248-.06-.686-.019-1.226-.041-1.6-.066-.2-.013-.355-.027-.465-.042a1.381,1.381,0,0,1-.176-.033A.515.515,0,0,1,263.1.7a1.385,1.385,0,0,1,.176-.033c.11-.015.262-.028.465-.041.379-.024.919-.046,1.6-.065,1.4-.038,3.267-.06,5.248-.06s3.843.021,5.246.06c.686.019,1.225.041,1.6.065.2.013.355.027.465.041a1.384,1.384,0,0,1,.176.033.515.515,0,0,1,0,1.007,1.378,1.378,0,0,1-.176.033c-.11.015-.262.028-.465.042-.379.025-.919.047-1.6.066C274.438,1.885,272.575,1.907,270.593,1.907ZM23.206.907C17,.907,11.173.886,6.791.847,4.658.829,2.983.807,1.813.783,1.217.77.758.757.45.744.285.737.163.73.077.722c-.055,0-.1-.01-.132-.016A.508.508,0,0,1-.5.2.508.508,0,0,1-.055-.3C-.02-.306.022-.311.077-.315.164-.323.286-.33.45-.337c.308-.013.767-.026,1.363-.038C2.984-.4,4.659-.421,6.791-.44,11.185-.479,17.014-.5,23.206-.5s12.017.021,16.411.06c2.132.019,3.807.04,4.979.065.6.012,1.055.025,1.363.038.164.007.286.014.373.021.055,0,.1.01.132.016a.507.507,0,0,1,0,1.006c-.035.006-.077.011-.132.016-.087.007-.209.015-.373.022C45.65.757,45.191.77,44.6.783c-1.171.024-2.846.046-4.979.065C35.234.886,29.406.907,23.206.907Z" transform="translate(16.094 120.239)" fill="rgba(0,0,0,0)"></path><path d="M0,3.35c0-.112,6.24-.2,13.939-.2s13.937.092,13.937.2-6.241.2-13.937.2S0,3.461,0,3.35ZM132.144,1.786c0-.112,6.239-.2,13.939-.2s13.937.091,13.937.2-6.241.2-13.937.2S132.144,1.9,132.144,1.786ZM183.9,1.319c0-.113,11.877-.2,26.533-.2s26.53.09,26.53.2-11.88.2-26.53.2S183.9,1.432,183.9,1.319Zm-124.086-.1c0-.112,11.392-.2,25.449-.2s25.447.091,25.447.2-11.395.2-25.447.2S59.812,1.335,59.812,1.222ZM319.959,1.2a67.869,67.869,0,0,1,7.4-.2,67.873,67.873,0,0,1,7.4.2,67.453,67.453,0,0,1-7.4.2A67.449,67.449,0,0,1,319.959,1.2Zm-56.768,0a67.87,67.87,0,0,1,7.4-.2,67.849,67.849,0,0,1,7.4.2,67.43,67.43,0,0,1-7.4.2A67.45,67.45,0,0,1,263.191,1.2ZM0,.2C0,.092,10.387,0,23.206,0s23.2.092,23.2.2-10.39.2-23.2.2S0,.316,0,.2Z" transform="translate(16.094 135.049)" fill="#263238"></path><path d="M13.939,4.053c-3.72,0-7.224-.021-9.864-.06-1.283-.019-2.291-.041-3-.065C.716,3.916.437,3.9.248,3.889.141,3.882.061,3.874,0,3.865A.516.516,0,0,1,0,2.834c.06-.009.14-.016.247-.024.189-.013.469-.027.83-.039.706-.024,1.714-.046,3-.065,2.64-.039,6.144-.06,9.864-.06s7.222.021,9.862.06c1.283.019,2.291.041,3,.065.362.012.641.026.83.039.106.008.187.015.247.024a.516.516,0,0,1,0,1.031c-.06.009-.14.016-.247.024-.189.013-.469.027-.83.039-.706.024-1.714.046-3,.065C21.161,4.032,17.659,4.053,13.939,4.053ZM146.083,2.49c-3.724,0-7.227-.021-9.865-.06-1.283-.019-2.291-.041-3-.065-.362-.013-.641-.026-.83-.039-.106-.008-.187-.015-.247-.024a.516.516,0,0,1,0-1.031c.06-.008.14-.016.246-.024.189-.013.468-.026.83-.039.705-.024,1.714-.046,3-.065,2.637-.038,6.14-.059,9.865-.059s7.225.021,9.862.059c1.283.019,2.291.04,3,.065.362.012.641.025.83.039.106.008.187.015.247.024a.516.516,0,0,1,0,1.031c-.06.009-.14.016-.247.024-.189.014-.469.027-.831.039-.706.024-1.714.046-3,.065C153.308,2.469,149.806,2.49,146.083,2.49Zm64.347-.467c-7.091,0-13.756-.021-18.766-.06-2.438-.019-4.353-.04-5.691-.065-.68-.012-1.2-.025-1.555-.038-.186-.007-.324-.014-.421-.021-.059,0-.1-.009-.14-.015a.507.507,0,0,1,0-1.01c.036-.005.08-.01.14-.015.1-.007.235-.014.421-.021.352-.013.875-.026,1.556-.038,1.337-.024,3.252-.046,5.691-.064,5-.038,11.667-.059,18.766-.059s13.76.021,18.763.059c2.439.019,4.354.04,5.691.064.681.012,1.2.025,1.556.038.186.007.324.014.421.021.059,0,.1.009.14.015a.507.507,0,0,1,0,1.01c-.036.005-.08.01-.14.015-.1.007-.235.014-.421.021-.352.013-.875.026-1.556.038-1.338.024-3.253.046-5.691.065C224.183,2,217.52,2.023,210.431,2.023Zm-125.169-.1c-6.809,0-13.2-.021-18-.059-2.34-.019-4.176-.04-5.459-.064-.653-.012-1.155-.025-1.493-.038-.179-.007-.312-.014-.405-.021-.058,0-.1-.009-.137-.015a.507.507,0,0,1,0-1.009C59.8.712,59.846.707,59.9.7,60,.7,60.131.689,60.31.682c.338-.013.84-.026,1.493-.038C63.086.619,64.922.6,67.261.578c4.805-.038,11.2-.059,18-.059s13.191.021,18,.059c2.339.019,4.176.04,5.459.065.653.012,1.155.025,1.493.038.179.007.312.014.405.021.058,0,.1.009.137.015a.507.507,0,0,1,0,1.009c-.036.006-.079.01-.137.015-.094.007-.226.014-.405.021-.338.013-.84.026-1.493.038-1.283.024-3.12.046-5.459.064C98.46,1.9,92.068,1.925,85.261,1.925Zm242.1-.018c-1.983,0-3.846-.021-5.248-.06-.686-.019-1.226-.041-1.6-.066-.2-.013-.355-.027-.465-.042a1.381,1.381,0,0,1-.176-.033.515.515,0,0,1,0-1.007,1.385,1.385,0,0,1,.176-.033c.11-.015.262-.028.465-.041.379-.024.919-.046,1.6-.065,1.4-.038,3.267-.06,5.248-.06s3.843.021,5.247.06c.686.019,1.226.041,1.6.065.2.013.355.027.465.041a1.384,1.384,0,0,1,.176.033.515.515,0,0,1,0,1.007,1.374,1.374,0,0,1-.176.033c-.11.015-.262.028-.465.042-.379.025-.919.047-1.6.066C331.206,1.885,329.342,1.907,327.361,1.907Zm-56.768,0c-1.983,0-3.846-.021-5.248-.06-.686-.019-1.226-.041-1.6-.066-.2-.013-.355-.027-.465-.042a1.381,1.381,0,0,1-.176-.033A.515.515,0,0,1,263.1.7a1.385,1.385,0,0,1,.176-.033c.11-.015.262-.028.465-.041.379-.024.919-.046,1.6-.065,1.4-.038,3.267-.06,5.248-.06s3.843.021,5.246.06c.686.019,1.225.041,1.6.065.2.013.355.027.465.041a1.384,1.384,0,0,1,.176.033.515.515,0,0,1,0,1.007,1.378,1.378,0,0,1-.176.033c-.11.015-.262.028-.465.042-.379.025-.919.047-1.6.066C274.438,1.885,272.575,1.907,270.593,1.907ZM23.206.907C17,.907,11.173.886,6.791.847,4.658.829,2.983.807,1.813.783,1.217.77.758.757.45.744.285.737.163.73.077.722c-.055,0-.1-.01-.132-.016A.508.508,0,0,1-.5.2.508.508,0,0,1-.055-.3C-.02-.306.022-.311.077-.315.164-.323.286-.33.45-.337c.308-.013.767-.026,1.363-.038C2.984-.4,4.659-.421,6.791-.44,11.185-.479,17.014-.5,23.206-.5s12.017.021,16.411.06c2.132.019,3.807.04,4.979.065.6.012,1.055.025,1.363.038.164.007.286.014.373.021.055,0,.1.01.132.016a.507.507,0,0,1,0,1.006c-.035.006-.077.011-.132.016-.087.007-.209.015-.373.022C45.65.757,45.191.77,44.6.783c-1.171.024-2.846.046-4.979.065C35.234.886,29.406.907,23.206.907Z" transform="translate(16.094 135.049)" fill="rgba(0,0,0,0)"></path><path d="M0,3.35c0-.112,6.24-.2,13.939-.2s13.937.092,13.937.2-6.241.2-13.937.2S0,3.461,0,3.35ZM132.144,1.786c0-.112,6.239-.2,13.939-.2s13.937.091,13.937.2-6.241.2-13.937.2S132.144,1.9,132.144,1.786ZM183.9,1.319c0-.113,11.877-.2,26.533-.2s26.53.09,26.53.2-11.88.2-26.53.2S183.9,1.432,183.9,1.319Zm-124.086-.1c0-.112,11.392-.2,25.449-.2s25.447.091,25.447.2-11.395.2-25.447.2S59.812,1.335,59.812,1.222ZM319.959,1.2a67.869,67.869,0,0,1,7.4-.2,67.873,67.873,0,0,1,7.4.2,67.453,67.453,0,0,1-7.4.2A67.449,67.449,0,0,1,319.959,1.2Zm-56.768,0a67.87,67.87,0,0,1,7.4-.2,67.849,67.849,0,0,1,7.4.2,67.43,67.43,0,0,1-7.4.2A67.45,67.45,0,0,1,263.191,1.2ZM0,.2C0,.092,10.387,0,23.206,0s23.2.092,23.2.2-10.39.2-23.2.2S0,.316,0,.2Z" transform="translate(16.094 149.86)" fill="#263238"></path><path d="M13.939,4.053c-3.72,0-7.224-.021-9.864-.06-1.283-.019-2.291-.041-3-.065C.716,3.916.437,3.9.248,3.889.141,3.882.061,3.874,0,3.865A.516.516,0,0,1,0,2.834c.06-.009.14-.016.247-.024.189-.013.469-.027.83-.039.706-.024,1.714-.046,3-.065,2.64-.039,6.144-.06,9.864-.06s7.222.021,9.862.06c1.283.019,2.291.041,3,.065.362.012.641.026.83.039.106.008.187.015.247.024a.516.516,0,0,1,0,1.031c-.06.009-.14.016-.247.024-.189.013-.469.027-.83.039-.706.024-1.714.046-3,.065C21.161,4.032,17.659,4.053,13.939,4.053ZM146.083,2.49c-3.724,0-7.227-.021-9.865-.06-1.283-.019-2.291-.041-3-.065-.362-.013-.641-.026-.83-.039-.106-.008-.187-.015-.247-.024a.516.516,0,0,1,0-1.031c.06-.008.14-.016.246-.024.189-.013.468-.026.83-.039.705-.024,1.714-.046,3-.065,2.637-.038,6.14-.059,9.865-.059s7.225.021,9.862.059c1.283.019,2.291.04,3,.065.362.012.641.025.83.039.106.008.187.015.247.024a.516.516,0,0,1,0,1.031c-.06.009-.14.016-.247.024-.189.014-.469.027-.831.039-.706.024-1.714.046-3,.065C153.308,2.469,149.806,2.49,146.083,2.49Zm64.347-.467c-7.091,0-13.756-.021-18.766-.06-2.438-.019-4.353-.04-5.691-.065-.68-.012-1.2-.025-1.555-.038-.186-.007-.324-.014-.421-.021-.059,0-.1-.009-.14-.015a.507.507,0,0,1,0-1.01c.036-.005.08-.01.14-.015.1-.007.235-.014.421-.021.352-.013.875-.026,1.556-.038,1.337-.024,3.252-.046,5.691-.064,5-.038,11.667-.059,18.766-.059s13.76.021,18.763.059c2.439.019,4.354.04,5.691.064.681.012,1.2.025,1.556.038.186.007.324.014.421.021.059,0,.1.009.14.015a.507.507,0,0,1,0,1.01c-.036.005-.08.01-.14.015-.1.007-.235.014-.421.021-.352.013-.875.026-1.556.038-1.338.024-3.253.046-5.691.065C224.183,2,217.52,2.023,210.431,2.023Zm-125.169-.1c-6.809,0-13.2-.021-18-.059-2.34-.019-4.176-.04-5.459-.064-.653-.012-1.155-.025-1.493-.038-.179-.007-.312-.014-.405-.021-.058,0-.1-.009-.137-.015a.507.507,0,0,1,0-1.009C59.8.712,59.846.707,59.9.7,60,.7,60.131.689,60.31.682c.338-.013.84-.026,1.493-.038C63.086.619,64.922.6,67.261.578c4.805-.038,11.2-.059,18-.059s13.191.021,18,.059c2.339.019,4.176.04,5.459.065.653.012,1.155.025,1.493.038.179.007.312.014.405.021.058,0,.1.009.137.015a.507.507,0,0,1,0,1.009c-.036.006-.079.01-.137.015-.094.007-.226.014-.405.021-.338.013-.84.026-1.493.038-1.283.024-3.12.046-5.459.064C98.46,1.9,92.068,1.925,85.261,1.925Zm242.1-.018c-1.983,0-3.846-.021-5.248-.06-.686-.019-1.226-.041-1.6-.066-.2-.013-.355-.027-.465-.042a1.381,1.381,0,0,1-.176-.033.515.515,0,0,1,0-1.007,1.385,1.385,0,0,1,.176-.033c.11-.015.262-.028.465-.041.379-.024.919-.046,1.6-.065,1.4-.038,3.267-.06,5.248-.06s3.843.021,5.247.06c.686.019,1.226.041,1.6.065.2.013.355.027.465.041a1.384,1.384,0,0,1,.176.033.515.515,0,0,1,0,1.007,1.374,1.374,0,0,1-.176.033c-.11.015-.262.028-.465.042-.379.025-.919.047-1.6.066C331.206,1.885,329.342,1.907,327.361,1.907Zm-56.768,0c-1.983,0-3.846-.021-5.248-.06-.686-.019-1.226-.041-1.6-.066-.2-.013-.355-.027-.465-.042a1.381,1.381,0,0,1-.176-.033A.515.515,0,0,1,263.1.7a1.385,1.385,0,0,1,.176-.033c.11-.015.262-.028.465-.041.379-.024.919-.046,1.6-.065,1.4-.038,3.267-.06,5.248-.06s3.843.021,5.246.06c.686.019,1.225.041,1.6.065.2.013.355.027.465.041a1.384,1.384,0,0,1,.176.033.515.515,0,0,1,0,1.007,1.378,1.378,0,0,1-.176.033c-.11.015-.262.028-.465.042-.379.025-.919.047-1.6.066C274.438,1.885,272.575,1.907,270.593,1.907ZM23.206.907C17,.907,11.173.886,6.791.847,4.658.829,2.983.807,1.813.783,1.217.77.758.757.45.744.285.737.163.73.077.722c-.055,0-.1-.01-.132-.016A.508.508,0,0,1-.5.2.508.508,0,0,1-.055-.3C-.02-.306.022-.311.077-.315.164-.323.286-.33.45-.337c.308-.013.767-.026,1.363-.038C2.984-.4,4.659-.421,6.791-.44,11.185-.479,17.014-.5,23.206-.5s12.017.021,16.411.06c2.132.019,3.807.04,4.979.065.6.012,1.055.025,1.363.038.164.007.286.014.373.021.055,0,.1.01.132.016a.507.507,0,0,1,0,1.006c-.035.006-.077.011-.132.016-.087.007-.209.015-.373.022C45.65.757,45.191.77,44.6.783c-1.171.024-2.846.046-4.979.065C35.234.886,29.406.907,23.206.907Z" transform="translate(16.094 149.86)" fill="rgba(0,0,0,0)"></path><path d="M0,3.35c0-.112,6.24-.2,13.939-.2s13.937.092,13.937.2-6.241.2-13.937.2S0,3.461,0,3.35ZM132.144,1.786c0-.112,6.239-.2,13.939-.2s13.937.091,13.937.2-6.241.2-13.937.2S132.144,1.9,132.144,1.786ZM183.9,1.319c0-.113,11.877-.2,26.533-.2s26.53.09,26.53.2-11.88.2-26.53.2S183.9,1.432,183.9,1.319Zm-124.086-.1c0-.112,11.392-.2,25.449-.2s25.447.091,25.447.2-11.395.2-25.447.2S59.812,1.335,59.812,1.222ZM319.959,1.2a67.869,67.869,0,0,1,7.4-.2,67.873,67.873,0,0,1,7.4.2,67.453,67.453,0,0,1-7.4.2A67.449,67.449,0,0,1,319.959,1.2Zm-56.768,0a67.87,67.87,0,0,1,7.4-.2,67.849,67.849,0,0,1,7.4.2,67.43,67.43,0,0,1-7.4.2A67.45,67.45,0,0,1,263.191,1.2ZM0,.2C0,.092,10.387,0,23.206,0s23.2.092,23.2.2-10.39.2-23.2.2S0,.316,0,.2Z" transform="translate(16.094 163.324)" fill="#263238"></path><path d="M13.939,4.053c-3.72,0-7.224-.021-9.864-.06-1.283-.019-2.291-.041-3-.065C.716,3.916.437,3.9.248,3.889.141,3.882.061,3.874,0,3.865A.516.516,0,0,1,0,2.834c.06-.009.14-.016.247-.024.189-.013.469-.027.83-.039.706-.024,1.714-.046,3-.065,2.64-.039,6.144-.06,9.864-.06s7.222.021,9.862.06c1.283.019,2.291.041,3,.065.362.012.641.026.83.039.106.008.187.015.247.024a.516.516,0,0,1,0,1.031c-.06.009-.14.016-.247.024-.189.013-.469.027-.83.039-.706.024-1.714.046-3,.065C21.161,4.032,17.659,4.053,13.939,4.053ZM146.083,2.49c-3.724,0-7.227-.021-9.865-.06-1.283-.019-2.291-.041-3-.065-.362-.013-.641-.026-.83-.039-.106-.008-.187-.015-.247-.024a.516.516,0,0,1,0-1.031c.06-.008.14-.016.246-.024.189-.013.468-.026.83-.039.705-.024,1.714-.046,3-.065,2.637-.038,6.14-.059,9.865-.059s7.225.021,9.862.059c1.283.019,2.291.04,3,.065.362.012.641.025.83.039.106.008.187.015.247.024a.516.516,0,0,1,0,1.031c-.06.009-.14.016-.247.024-.189.014-.469.027-.831.039-.706.024-1.714.046-3,.065C153.308,2.469,149.806,2.49,146.083,2.49Zm64.347-.467c-7.091,0-13.756-.021-18.766-.06-2.438-.019-4.353-.04-5.691-.065-.68-.012-1.2-.025-1.555-.038-.186-.007-.324-.014-.421-.021-.059,0-.1-.009-.14-.015a.507.507,0,0,1,0-1.01c.036-.005.08-.01.14-.015.1-.007.235-.014.421-.021.352-.013.875-.026,1.556-.038,1.337-.024,3.252-.046,5.691-.064,5-.038,11.667-.059,18.766-.059s13.76.021,18.763.059c2.439.019,4.354.04,5.691.064.681.012,1.2.025,1.556.038.186.007.324.014.421.021.059,0,.1.009.14.015a.507.507,0,0,1,0,1.01c-.036.005-.08.01-.14.015-.1.007-.235.014-.421.021-.352.013-.875.026-1.556.038-1.338.024-3.253.046-5.691.065C224.183,2,217.52,2.023,210.431,2.023Zm-125.169-.1c-6.809,0-13.2-.021-18-.059-2.34-.019-4.176-.04-5.459-.064-.653-.012-1.155-.025-1.493-.038-.179-.007-.312-.014-.405-.021-.058,0-.1-.009-.137-.015a.507.507,0,0,1,0-1.009C59.8.712,59.846.707,59.9.7,60,.7,60.131.689,60.31.682c.338-.013.84-.026,1.493-.038C63.086.619,64.922.6,67.261.578c4.805-.038,11.2-.059,18-.059s13.191.021,18,.059c2.339.019,4.176.04,5.459.065.653.012,1.155.025,1.493.038.179.007.312.014.405.021.058,0,.1.009.137.015a.507.507,0,0,1,0,1.009c-.036.006-.079.01-.137.015-.094.007-.226.014-.405.021-.338.013-.84.026-1.493.038-1.283.024-3.12.046-5.459.064C98.46,1.9,92.068,1.925,85.261,1.925Zm242.1-.018c-1.983,0-3.846-.021-5.248-.06-.686-.019-1.226-.041-1.6-.066-.2-.013-.355-.027-.465-.042a1.381,1.381,0,0,1-.176-.033.515.515,0,0,1,0-1.007,1.385,1.385,0,0,1,.176-.033c.11-.015.262-.028.465-.041.379-.024.919-.046,1.6-.065,1.4-.038,3.267-.06,5.248-.06s3.843.021,5.247.06c.686.019,1.226.041,1.6.065.2.013.355.027.465.041a1.384,1.384,0,0,1,.176.033.515.515,0,0,1,0,1.007,1.374,1.374,0,0,1-.176.033c-.11.015-.262.028-.465.042-.379.025-.919.047-1.6.066C331.206,1.885,329.342,1.907,327.361,1.907Zm-56.768,0c-1.983,0-3.846-.021-5.248-.06-.686-.019-1.226-.041-1.6-.066-.2-.013-.355-.027-.465-.042a1.381,1.381,0,0,1-.176-.033A.515.515,0,0,1,263.1.7a1.385,1.385,0,0,1,.176-.033c.11-.015.262-.028.465-.041.379-.024.919-.046,1.6-.065,1.4-.038,3.267-.06,5.248-.06s3.843.021,5.246.06c.686.019,1.225.041,1.6.065.2.013.355.027.465.041a1.384,1.384,0,0,1,.176.033.515.515,0,0,1,0,1.007,1.378,1.378,0,0,1-.176.033c-.11.015-.262.028-.465.042-.379.025-.919.047-1.6.066C274.438,1.885,272.575,1.907,270.593,1.907ZM23.206.907C17,.907,11.173.886,6.791.847,4.658.829,2.983.807,1.813.783,1.217.77.758.757.45.744.285.737.163.73.077.722c-.055,0-.1-.01-.132-.016A.508.508,0,0,1-.5.2.508.508,0,0,1-.055-.3C-.02-.306.022-.311.077-.315.164-.323.286-.33.45-.337c.308-.013.767-.026,1.363-.038C2.984-.4,4.659-.421,6.791-.44,11.185-.479,17.014-.5,23.206-.5s12.017.021,16.411.06c2.132.019,3.807.04,4.979.065.6.012,1.055.025,1.363.038.164.007.286.014.373.021.055,0,.1.01.132.016a.507.507,0,0,1,0,1.006c-.035.006-.077.011-.132.016-.087.007-.209.015-.373.022C45.65.757,45.191.77,44.6.783c-1.171.024-2.846.046-4.979.065C35.234.886,29.406.907,23.206.907Z" transform="translate(16.094 163.324)" fill="rgba(0,0,0,0)"></path><path d="M0,3.35c0-.112,6.24-.2,13.939-.2s13.937.092,13.937.2-6.241.2-13.937.2S0,3.461,0,3.35ZM132.144,1.786c0-.112,6.239-.2,13.939-.2s13.937.091,13.937.2-6.241.2-13.937.2S132.144,1.9,132.144,1.786ZM183.9,1.319c0-.113,11.877-.2,26.533-.2s26.53.09,26.53.2-11.88.2-26.53.2S183.9,1.432,183.9,1.319Zm-124.086-.1c0-.112,11.392-.2,25.449-.2s25.447.091,25.447.2-11.395.2-25.447.2S59.812,1.335,59.812,1.222ZM319.959,1.2a67.869,67.869,0,0,1,7.4-.2,67.873,67.873,0,0,1,7.4.2,67.453,67.453,0,0,1-7.4.2A67.449,67.449,0,0,1,319.959,1.2Zm-56.768,0a67.87,67.87,0,0,1,7.4-.2,67.849,67.849,0,0,1,7.4.2,67.43,67.43,0,0,1-7.4.2A67.45,67.45,0,0,1,263.191,1.2ZM0,.2C0,.092,10.387,0,23.206,0s23.2.092,23.2.2-10.39.2-23.2.2S0,.316,0,.2Z" transform="translate(16.094 176.921)" fill="#263238"></path><path d="M13.939,4.053c-3.72,0-7.224-.021-9.864-.06-1.283-.019-2.291-.041-3-.065C.716,3.916.437,3.9.248,3.889.141,3.882.061,3.874,0,3.865A.516.516,0,0,1,0,2.834c.06-.009.14-.016.247-.024.189-.013.469-.027.83-.039.706-.024,1.714-.046,3-.065,2.64-.039,6.144-.06,9.864-.06s7.222.021,9.862.06c1.283.019,2.291.041,3,.065.362.012.641.026.83.039.106.008.187.015.247.024a.516.516,0,0,1,0,1.031c-.06.009-.14.016-.247.024-.189.013-.469.027-.83.039-.706.024-1.714.046-3,.065C21.161,4.032,17.659,4.053,13.939,4.053ZM146.083,2.49c-3.724,0-7.227-.021-9.865-.06-1.283-.019-2.291-.041-3-.065-.362-.013-.641-.026-.83-.039-.106-.008-.187-.015-.247-.024a.516.516,0,0,1,0-1.031c.06-.008.14-.016.246-.024.189-.013.468-.026.83-.039.705-.024,1.714-.046,3-.065,2.637-.038,6.14-.059,9.865-.059s7.225.021,9.862.059c1.283.019,2.291.04,3,.065.362.012.641.025.83.039.106.008.187.015.247.024a.516.516,0,0,1,0,1.031c-.06.009-.14.016-.247.024-.189.014-.469.027-.831.039-.706.024-1.714.046-3,.065C153.308,2.469,149.806,2.49,146.083,2.49Zm64.347-.467c-7.091,0-13.756-.021-18.766-.06-2.438-.019-4.353-.04-5.691-.065-.68-.012-1.2-.025-1.555-.038-.186-.007-.324-.014-.421-.021-.059,0-.1-.009-.14-.015a.507.507,0,0,1,0-1.01c.036-.005.08-.01.14-.015.1-.007.235-.014.421-.021.352-.013.875-.026,1.556-.038,1.337-.024,3.252-.046,5.691-.064,5-.038,11.667-.059,18.766-.059s13.76.021,18.763.059c2.439.019,4.354.04,5.691.064.681.012,1.2.025,1.556.038.186.007.324.014.421.021.059,0,.1.009.14.015a.507.507,0,0,1,0,1.01c-.036.005-.08.01-.14.015-.1.007-.235.014-.421.021-.352.013-.875.026-1.556.038-1.338.024-3.253.046-5.691.065C224.183,2,217.52,2.023,210.431,2.023Zm-125.169-.1c-6.809,0-13.2-.021-18-.059-2.34-.019-4.176-.04-5.459-.064-.653-.012-1.155-.025-1.493-.038-.179-.007-.312-.014-.405-.021-.058,0-.1-.009-.137-.015a.507.507,0,0,1,0-1.009C59.8.712,59.846.707,59.9.7,60,.7,60.131.689,60.31.682c.338-.013.84-.026,1.493-.038C63.086.619,64.922.6,67.261.578c4.805-.038,11.2-.059,18-.059s13.191.021,18,.059c2.339.019,4.176.04,5.459.065.653.012,1.155.025,1.493.038.179.007.312.014.405.021.058,0,.1.009.137.015a.507.507,0,0,1,0,1.009c-.036.006-.079.01-.137.015-.094.007-.226.014-.405.021-.338.013-.84.026-1.493.038-1.283.024-3.12.046-5.459.064C98.46,1.9,92.068,1.925,85.261,1.925Zm242.1-.018c-1.983,0-3.846-.021-5.248-.06-.686-.019-1.226-.041-1.6-.066-.2-.013-.355-.027-.465-.042a1.381,1.381,0,0,1-.176-.033.515.515,0,0,1,0-1.007,1.385,1.385,0,0,1,.176-.033c.11-.015.262-.028.465-.041.379-.024.919-.046,1.6-.065,1.4-.038,3.267-.06,5.248-.06s3.843.021,5.247.06c.686.019,1.226.041,1.6.065.2.013.355.027.465.041a1.384,1.384,0,0,1,.176.033.515.515,0,0,1,0,1.007,1.374,1.374,0,0,1-.176.033c-.11.015-.262.028-.465.042-.379.025-.919.047-1.6.066C331.206,1.885,329.342,1.907,327.361,1.907Zm-56.768,0c-1.983,0-3.846-.021-5.248-.06-.686-.019-1.226-.041-1.6-.066-.2-.013-.355-.027-.465-.042a1.381,1.381,0,0,1-.176-.033A.515.515,0,0,1,263.1.7a1.385,1.385,0,0,1,.176-.033c.11-.015.262-.028.465-.041.379-.024.919-.046,1.6-.065,1.4-.038,3.267-.06,5.248-.06s3.843.021,5.246.06c.686.019,1.225.041,1.6.065.2.013.355.027.465.041a1.384,1.384,0,0,1,.176.033.515.515,0,0,1,0,1.007,1.378,1.378,0,0,1-.176.033c-.11.015-.262.028-.465.042-.379.025-.919.047-1.6.066C274.438,1.885,272.575,1.907,270.593,1.907ZM23.206.907C17,.907,11.173.886,6.791.847,4.658.829,2.983.807,1.813.783,1.217.77.758.757.45.744.285.737.163.73.077.722c-.055,0-.1-.01-.132-.016A.508.508,0,0,1-.5.2.508.508,0,0,1-.055-.3C-.02-.306.022-.311.077-.315.164-.323.286-.33.45-.337c.308-.013.767-.026,1.363-.038C2.984-.4,4.659-.421,6.791-.44,11.185-.479,17.014-.5,23.206-.5s12.017.021,16.411.06c2.132.019,3.807.04,4.979.065.6.012,1.055.025,1.363.038.164.007.286.014.373.021.055,0,.1.01.132.016a.507.507,0,0,1,0,1.006c-.035.006-.077.011-.132.016-.087.007-.209.015-.373.022C45.65.757,45.191.77,44.6.783c-1.171.024-2.846.046-4.979.065C35.234.886,29.406.907,23.206.907Z" transform="translate(16.094 176.921)" fill="rgba(0,0,0,0)"></path><path d="M0,3.35c0-.112,6.24-.2,13.939-.2s13.937.092,13.937.2-6.241.2-13.937.2S0,3.461,0,3.35ZM132.144,1.786c0-.112,6.239-.2,13.939-.2s13.937.091,13.937.2-6.241.2-13.937.2S132.144,1.9,132.144,1.786ZM183.9,1.319c0-.113,11.877-.2,26.533-.2s26.53.09,26.53.2-11.88.2-26.53.2S183.9,1.432,183.9,1.319Zm-124.086-.1c0-.112,11.392-.2,25.449-.2s25.447.091,25.447.2-11.395.2-25.447.2S59.812,1.335,59.812,1.222ZM319.959,1.2a67.869,67.869,0,0,1,7.4-.2,67.873,67.873,0,0,1,7.4.2,67.453,67.453,0,0,1-7.4.2A67.449,67.449,0,0,1,319.959,1.2Zm-56.768,0a67.87,67.87,0,0,1,7.4-.2,67.849,67.849,0,0,1,7.4.2,67.43,67.43,0,0,1-7.4.2A67.45,67.45,0,0,1,263.191,1.2ZM0,.2C0,.092,10.387,0,23.206,0s23.2.092,23.2.2-10.39.2-23.2.2S0,.316,0,.2Z" transform="translate(16.094 190.921)" fill="#263238"></path><path d="M13.939,4.053c-3.72,0-7.224-.021-9.864-.06-1.283-.019-2.291-.041-3-.065C.716,3.916.437,3.9.248,3.889.141,3.882.061,3.874,0,3.865A.516.516,0,0,1,0,2.834c.06-.009.14-.016.247-.024.189-.013.469-.027.83-.039.706-.024,1.714-.046,3-.065,2.64-.039,6.144-.06,9.864-.06s7.222.021,9.862.06c1.283.019,2.291.041,3,.065.362.012.641.026.83.039.106.008.187.015.247.024a.516.516,0,0,1,0,1.031c-.06.009-.14.016-.247.024-.189.013-.469.027-.83.039-.706.024-1.714.046-3,.065C21.161,4.032,17.659,4.053,13.939,4.053ZM146.083,2.49c-3.724,0-7.227-.021-9.865-.06-1.283-.019-2.291-.041-3-.065-.362-.013-.641-.026-.83-.039-.106-.008-.187-.015-.247-.024a.516.516,0,0,1,0-1.031c.06-.008.14-.016.246-.024.189-.013.468-.026.83-.039.705-.024,1.714-.046,3-.065,2.637-.038,6.14-.059,9.865-.059s7.225.021,9.862.059c1.283.019,2.291.04,3,.065.362.012.641.025.83.039.106.008.187.015.247.024a.516.516,0,0,1,0,1.031c-.06.009-.14.016-.247.024-.189.014-.469.027-.831.039-.706.024-1.714.046-3,.065C153.308,2.469,149.806,2.49,146.083,2.49Zm64.347-.467c-7.091,0-13.756-.021-18.766-.06-2.438-.019-4.353-.04-5.691-.065-.68-.012-1.2-.025-1.555-.038-.186-.007-.324-.014-.421-.021-.059,0-.1-.009-.14-.015a.507.507,0,0,1,0-1.01c.036-.005.08-.01.14-.015.1-.007.235-.014.421-.021.352-.013.875-.026,1.556-.038,1.337-.024,3.252-.046,5.691-.064,5-.038,11.667-.059,18.766-.059s13.76.021,18.763.059c2.439.019,4.354.04,5.691.064.681.012,1.2.025,1.556.038.186.007.324.014.421.021.059,0,.1.009.14.015a.507.507,0,0,1,0,1.01c-.036.005-.08.01-.14.015-.1.007-.235.014-.421.021-.352.013-.875.026-1.556.038-1.338.024-3.253.046-5.691.065C224.183,2,217.52,2.023,210.431,2.023Zm-125.169-.1c-6.809,0-13.2-.021-18-.059-2.34-.019-4.176-.04-5.459-.064-.653-.012-1.155-.025-1.493-.038-.179-.007-.312-.014-.405-.021-.058,0-.1-.009-.137-.015a.507.507,0,0,1,0-1.009C59.8.712,59.846.707,59.9.7,60,.7,60.131.689,60.31.682c.338-.013.84-.026,1.493-.038C63.086.619,64.922.6,67.261.578c4.805-.038,11.2-.059,18-.059s13.191.021,18,.059c2.339.019,4.176.04,5.459.065.653.012,1.155.025,1.493.038.179.007.312.014.405.021.058,0,.1.009.137.015a.507.507,0,0,1,0,1.009c-.036.006-.079.01-.137.015-.094.007-.226.014-.405.021-.338.013-.84.026-1.493.038-1.283.024-3.12.046-5.459.064C98.46,1.9,92.068,1.925,85.261,1.925Zm242.1-.018c-1.983,0-3.846-.021-5.248-.06-.686-.019-1.226-.041-1.6-.066-.2-.013-.355-.027-.465-.042a1.381,1.381,0,0,1-.176-.033.515.515,0,0,1,0-1.007,1.385,1.385,0,0,1,.176-.033c.11-.015.262-.028.465-.041.379-.024.919-.046,1.6-.065,1.4-.038,3.267-.06,5.248-.06s3.843.021,5.247.06c.686.019,1.226.041,1.6.065.2.013.355.027.465.041a1.384,1.384,0,0,1,.176.033.515.515,0,0,1,0,1.007,1.374,1.374,0,0,1-.176.033c-.11.015-.262.028-.465.042-.379.025-.919.047-1.6.066C331.206,1.885,329.342,1.907,327.361,1.907Zm-56.768,0c-1.983,0-3.846-.021-5.248-.06-.686-.019-1.226-.041-1.6-.066-.2-.013-.355-.027-.465-.042a1.381,1.381,0,0,1-.176-.033A.515.515,0,0,1,263.1.7a1.385,1.385,0,0,1,.176-.033c.11-.015.262-.028.465-.041.379-.024.919-.046,1.6-.065,1.4-.038,3.267-.06,5.248-.06s3.843.021,5.246.06c.686.019,1.225.041,1.6.065.2.013.355.027.465.041a1.384,1.384,0,0,1,.176.033.515.515,0,0,1,0,1.007,1.378,1.378,0,0,1-.176.033c-.11.015-.262.028-.465.042-.379.025-.919.047-1.6.066C274.438,1.885,272.575,1.907,270.593,1.907ZM23.206.907C17,.907,11.173.886,6.791.847,4.658.829,2.983.807,1.813.783,1.217.77.758.757.45.744.285.737.163.73.077.722c-.055,0-.1-.01-.132-.016A.508.508,0,0,1-.5.2.508.508,0,0,1-.055-.3C-.02-.306.022-.311.077-.315.164-.323.286-.33.45-.337c.308-.013.767-.026,1.363-.038C2.984-.4,4.659-.421,6.791-.44,11.185-.479,17.014-.5,23.206-.5s12.017.021,16.411.06c2.132.019,3.807.04,4.979.065.6.012,1.055.025,1.363.038.164.007.286.014.373.021.055,0,.1.01.132.016a.507.507,0,0,1,0,1.006c-.035.006-.077.011-.132.016-.087.007-.209.015-.373.022C45.65.757,45.191.77,44.6.783c-1.171.024-2.846.046-4.979.065C35.234.886,29.406.907,23.206.907Z" transform="translate(16.094 190.921)" fill="rgba(0,0,0,0)"></path><path d="M0,3.35c0-.112,6.24-.2,13.939-.2s13.937.092,13.937.2-6.241.2-13.937.2S0,3.461,0,3.35ZM132.144,1.786c0-.112,6.239-.2,13.939-.2s13.937.091,13.937.2-6.241.2-13.937.2S132.144,1.9,132.144,1.786ZM183.9,1.319c0-.113,11.877-.2,26.533-.2s26.53.09,26.53.2-11.88.2-26.53.2S183.9,1.432,183.9,1.319Zm-124.086-.1c0-.112,11.392-.2,25.449-.2s25.447.091,25.447.2-11.395.2-25.447.2S59.812,1.335,59.812,1.222ZM319.959,1.2a67.869,67.869,0,0,1,7.4-.2,67.873,67.873,0,0,1,7.4.2,67.453,67.453,0,0,1-7.4.2A67.449,67.449,0,0,1,319.959,1.2Zm-56.768,0a67.87,67.87,0,0,1,7.4-.2,67.849,67.849,0,0,1,7.4.2,67.43,67.43,0,0,1-7.4.2A67.45,67.45,0,0,1,263.191,1.2ZM0,.2C0,.092,10.387,0,23.206,0s23.2.092,23.2.2-10.39.2-23.2.2S0,.316,0,.2Z" transform="translate(16.094 204.921)" fill="#263238"></path><path d="M13.939,4.053c-3.72,0-7.224-.021-9.864-.06-1.283-.019-2.291-.041-3-.065C.716,3.916.437,3.9.248,3.889.141,3.882.061,3.874,0,3.865A.516.516,0,0,1,0,2.834c.06-.009.14-.016.247-.024.189-.013.469-.027.83-.039.706-.024,1.714-.046,3-.065,2.64-.039,6.144-.06,9.864-.06s7.222.021,9.862.06c1.283.019,2.291.041,3,.065.362.012.641.026.83.039.106.008.187.015.247.024a.516.516,0,0,1,0,1.031c-.06.009-.14.016-.247.024-.189.013-.469.027-.83.039-.706.024-1.714.046-3,.065C21.161,4.032,17.659,4.053,13.939,4.053ZM146.083,2.49c-3.724,0-7.227-.021-9.865-.06-1.283-.019-2.291-.041-3-.065-.362-.013-.641-.026-.83-.039-.106-.008-.187-.015-.247-.024a.516.516,0,0,1,0-1.031c.06-.008.14-.016.246-.024.189-.013.468-.026.83-.039.705-.024,1.714-.046,3-.065,2.637-.038,6.14-.059,9.865-.059s7.225.021,9.862.059c1.283.019,2.291.04,3,.065.362.012.641.025.83.039.106.008.187.015.247.024a.516.516,0,0,1,0,1.031c-.06.009-.14.016-.247.024-.189.014-.469.027-.831.039-.706.024-1.714.046-3,.065C153.308,2.469,149.806,2.49,146.083,2.49Zm64.347-.467c-7.091,0-13.756-.021-18.766-.06-2.438-.019-4.353-.04-5.691-.065-.68-.012-1.2-.025-1.555-.038-.186-.007-.324-.014-.421-.021-.059,0-.1-.009-.14-.015a.507.507,0,0,1,0-1.01c.036-.005.08-.01.14-.015.1-.007.235-.014.421-.021.352-.013.875-.026,1.556-.038,1.337-.024,3.252-.046,5.691-.064,5-.038,11.667-.059,18.766-.059s13.76.021,18.763.059c2.439.019,4.354.04,5.691.064.681.012,1.2.025,1.556.038.186.007.324.014.421.021.059,0,.1.009.14.015a.507.507,0,0,1,0,1.01c-.036.005-.08.01-.14.015-.1.007-.235.014-.421.021-.352.013-.875.026-1.556.038-1.338.024-3.253.046-5.691.065C224.183,2,217.52,2.023,210.431,2.023Zm-125.169-.1c-6.809,0-13.2-.021-18-.059-2.34-.019-4.176-.04-5.459-.064-.653-.012-1.155-.025-1.493-.038-.179-.007-.312-.014-.405-.021-.058,0-.1-.009-.137-.015a.507.507,0,0,1,0-1.009C59.8.712,59.846.707,59.9.7,60,.7,60.131.689,60.31.682c.338-.013.84-.026,1.493-.038C63.086.619,64.922.6,67.261.578c4.805-.038,11.2-.059,18-.059s13.191.021,18,.059c2.339.019,4.176.04,5.459.065.653.012,1.155.025,1.493.038.179.007.312.014.405.021.058,0,.1.009.137.015a.507.507,0,0,1,0,1.009c-.036.006-.079.01-.137.015-.094.007-.226.014-.405.021-.338.013-.84.026-1.493.038-1.283.024-3.12.046-5.459.064C98.46,1.9,92.068,1.925,85.261,1.925Zm242.1-.018c-1.983,0-3.846-.021-5.248-.06-.686-.019-1.226-.041-1.6-.066-.2-.013-.355-.027-.465-.042a1.381,1.381,0,0,1-.176-.033.515.515,0,0,1,0-1.007,1.385,1.385,0,0,1,.176-.033c.11-.015.262-.028.465-.041.379-.024.919-.046,1.6-.065,1.4-.038,3.267-.06,5.248-.06s3.843.021,5.247.06c.686.019,1.226.041,1.6.065.2.013.355.027.465.041a1.384,1.384,0,0,1,.176.033.515.515,0,0,1,0,1.007,1.374,1.374,0,0,1-.176.033c-.11.015-.262.028-.465.042-.379.025-.919.047-1.6.066C331.206,1.885,329.342,1.907,327.361,1.907Zm-56.768,0c-1.983,0-3.846-.021-5.248-.06-.686-.019-1.226-.041-1.6-.066-.2-.013-.355-.027-.465-.042a1.381,1.381,0,0,1-.176-.033A.515.515,0,0,1,263.1.7a1.385,1.385,0,0,1,.176-.033c.11-.015.262-.028.465-.041.379-.024.919-.046,1.6-.065,1.4-.038,3.267-.06,5.248-.06s3.843.021,5.246.06c.686.019,1.225.041,1.6.065.2.013.355.027.465.041a1.384,1.384,0,0,1,.176.033.515.515,0,0,1,0,1.007,1.378,1.378,0,0,1-.176.033c-.11.015-.262.028-.465.042-.379.025-.919.047-1.6.066C274.438,1.885,272.575,1.907,270.593,1.907ZM23.206.907C17,.907,11.173.886,6.791.847,4.658.829,2.983.807,1.813.783,1.217.77.758.757.45.744.285.737.163.73.077.722c-.055,0-.1-.01-.132-.016A.508.508,0,0,1-.5.2.508.508,0,0,1-.055-.3C-.02-.306.022-.311.077-.315.164-.323.286-.33.45-.337c.308-.013.767-.026,1.363-.038C2.984-.4,4.659-.421,6.791-.44,11.185-.479,17.014-.5,23.206-.5s12.017.021,16.411.06c2.132.019,3.807.04,4.979.065.6.012,1.055.025,1.363.038.164.007.286.014.373.021.055,0,.1.01.132.016a.507.507,0,0,1,0,1.006c-.035.006-.077.011-.132.016-.087.007-.209.015-.373.022C45.65.757,45.191.77,44.6.783c-1.171.024-2.846.046-4.979.065C35.234.886,29.406.907,23.206.907Z" transform="translate(16.094 204.921)" fill="rgba(0,0,0,0)"></path><path d="M36.018-716.745v-.545a1.622,1.622,0,0,0,.355.035.725.725,0,0,0,.7-.577l.121-.305-1.3-3.24h.751l.659,1.837a3.466,3.466,0,0,1,.2.739h.023a3.143,3.143,0,0,1,.1-.391q.07-.23.744-2.184h.743l-1.385,3.671a1.315,1.315,0,0,1-1.26,1.011A1.984,1.984,0,0,1,36.018-716.745Zm-209.529-.185a.757.757,0,0,1-.349-.669.711.711,0,0,1,.189-.5,1.014,1.014,0,0,1,.529-.283.512.512,0,0,1-.227-.189.473.473,0,0,1-.09-.274.471.471,0,0,1,.1-.308,1.186,1.186,0,0,1,.305-.249.9.9,0,0,1-.409-.353,1.038,1.038,0,0,1-.158-.572,1.029,1.029,0,0,1,.333-.818,1.4,1.4,0,0,1,.948-.29,2.337,2.337,0,0,1,.289.019,1.843,1.843,0,0,1,.227.04h1.122V-721l-.554.1a.857.857,0,0,1,.126.252.994.994,0,0,1,.05.317.968.968,0,0,1-.346.788,1.445,1.445,0,0,1-.952.287,1.5,1.5,0,0,1-.282-.023.388.388,0,0,0-.222.322.179.179,0,0,0,.1.167.9.9,0,0,0,.383.056h.565a1.252,1.252,0,0,1,.814.229.8.8,0,0,1,.279.659.959.959,0,0,1-.455.85,2.391,2.391,0,0,1-1.312.3A1.814,1.814,0,0,1-173.511-716.929Zm.441-1.08a.455.455,0,0,0-.175.376.378.378,0,0,0,.2.343,1.1,1.1,0,0,0,.564.121,1.709,1.709,0,0,0,.838-.161.485.485,0,0,0,.275-.428.319.319,0,0,0-.15-.3,1.215,1.215,0,0,0-.562-.09h-.521A.732.732,0,0,0-173.07-718.009Zm.275-2.814a.716.716,0,0,0-.154.5.651.651,0,0,0,.157.468.591.591,0,0,0,.45.165q.6,0,.6-.639a.723.723,0,0,0-.148-.488.56.56,0,0,0-.449-.171A.581.581,0,0,0-172.795-720.824Zm-58.056,3.894a.759.759,0,0,1-.348-.669.711.711,0,0,1,.189-.5,1.014,1.014,0,0,1,.529-.283.514.514,0,0,1-.228-.189.479.479,0,0,1-.089-.274.471.471,0,0,1,.1-.308,1.2,1.2,0,0,1,.3-.249.9.9,0,0,1-.409-.353,1.038,1.038,0,0,1-.157-.572,1.026,1.026,0,0,1,.333-.818,1.4,1.4,0,0,1,.948-.29,2.312,2.312,0,0,1,.288.019,1.864,1.864,0,0,1,.228.04h1.121V-721l-.553.1a.88.88,0,0,1,.126.252.993.993,0,0,1,.049.317.968.968,0,0,1-.346.788,1.444,1.444,0,0,1-.952.287,1.485,1.485,0,0,1-.281-.023.389.389,0,0,0-.223.322.179.179,0,0,0,.1.167.9.9,0,0,0,.382.056h.565a1.254,1.254,0,0,1,.814.229.8.8,0,0,1,.278.659.958.958,0,0,1-.454.85,2.4,2.4,0,0,1-1.313.3A1.818,1.818,0,0,1-230.851-716.929Zm.441-1.08a.456.456,0,0,0-.174.376.378.378,0,0,0,.2.343,1.1,1.1,0,0,0,.563.121,1.707,1.707,0,0,0,.838-.161.484.484,0,0,0,.275-.428.321.321,0,0,0-.15-.3,1.215,1.215,0,0,0-.562-.09h-.521A.735.735,0,0,0-230.41-718.009Zm.275-2.814a.716.716,0,0,0-.154.5.647.647,0,0,0,.158.468.59.59,0,0,0,.449.165q.6,0,.6-.639a.728.728,0,0,0-.148-.488.562.562,0,0,0-.45-.171A.583.583,0,0,0-230.135-720.824Zm357.053,2.488a.963.963,0,0,1-.268-.729.857.857,0,0,1,.372-.756,2.151,2.151,0,0,1,1.134-.279l.56-.017v-.173a.657.657,0,0,0-.145-.464.592.592,0,0,0-.45-.154,1.565,1.565,0,0,0-.478.073,3.844,3.844,0,0,0-.439.173l-.222-.491a2.388,2.388,0,0,1,.577-.21,2.663,2.663,0,0,1,.591-.072,1.4,1.4,0,0,1,.933.27,1.052,1.052,0,0,1,.315.846v2.182h-.492l-.138-.451h-.023a1.322,1.322,0,0,1-.472.4,1.5,1.5,0,0,1-.609.107A1.029,1.029,0,0,1,126.919-718.336Zm1.375-1.33a1.418,1.418,0,0,0-.707.163.494.494,0,0,0-.221.444.435.435,0,0,0,.129.336.555.555,0,0,0,.387.119.853.853,0,0,0,.6-.21.76.76,0,0,0,.227-.588v-.281Zm-5.87,1.159a1.8,1.8,0,0,1-.382-1.232,1.8,1.8,0,0,1,.4-1.257,1.484,1.484,0,0,1,1.156-.439,2.164,2.164,0,0,1,.923.191l-.208.553a2.08,2.08,0,0,0-.721-.17q-.84,0-.841,1.116a1.338,1.338,0,0,0,.21.819.725.725,0,0,0,.614.275,1.764,1.764,0,0,0,.87-.229v.6a1.355,1.355,0,0,1-.394.155,2.347,2.347,0,0,1-.508.048A1.418,1.418,0,0,1,122.424-718.507Zm-3.324.224a1.355,1.355,0,0,1-.536-.589,2.015,2.015,0,0,1-.187-.89,1.757,1.757,0,0,1,.4-1.23,1.467,1.467,0,0,1,1.14-.443,1.43,1.43,0,0,1,1.113.453,1.751,1.751,0,0,1,.41,1.22,1.771,1.771,0,0,1-.407,1.239,1.46,1.46,0,0,1-1.134.445A1.553,1.553,0,0,1,119.1-718.283Zm.18-2.3a1.466,1.466,0,0,0-.194.824q0,1.122.829,1.122t.821-1.122q0-1.111-.826-1.111A.705.705,0,0,0,119.281-720.586Zm-4.208,2.282v-.662a3.2,3.2,0,0,0,.623.217,2.617,2.617,0,0,0,.614.079.978.978,0,0,0,.614-.158.516.516,0,0,0,.2-.425.532.532,0,0,0-.182-.407,2.755,2.755,0,0,0-.751-.4,1.975,1.975,0,0,1-.826-.542,1.152,1.152,0,0,1-.239-.733,1.025,1.025,0,0,1,.381-.843,1.579,1.579,0,0,1,1.022-.308,3.009,3.009,0,0,1,1.224.269l-.222.571a2.676,2.676,0,0,0-1.02-.24.783.783,0,0,0-.516.148.485.485,0,0,0-.175.391.553.553,0,0,0,.07.286.718.718,0,0,0,.231.224,3.983,3.983,0,0,0,.58.278,3.163,3.163,0,0,1,.691.366,1.078,1.078,0,0,1,.322.383,1.156,1.156,0,0,1,.1.5,1.078,1.078,0,0,1-.413.9,1.8,1.8,0,0,1-1.139.326A2.722,2.722,0,0,1,115.072-718.3Zm-34.606-.032a.966.966,0,0,1-.268-.729.856.856,0,0,1,.373-.756A2.145,2.145,0,0,1,81.7-720.1l.56-.017v-.173a.653.653,0,0,0-.145-.464.591.591,0,0,0-.45-.154,1.56,1.56,0,0,0-.477.073,3.843,3.843,0,0,0-.439.173l-.223-.491a2.388,2.388,0,0,1,.577-.21,2.677,2.677,0,0,1,.592-.072,1.4,1.4,0,0,1,.933.27,1.055,1.055,0,0,1,.315.846v2.182h-.492l-.138-.451h-.023a1.338,1.338,0,0,1-.472.4,1.5,1.5,0,0,1-.609.107A1.033,1.033,0,0,1,80.466-718.336Zm1.375-1.33a1.418,1.418,0,0,0-.707.163.493.493,0,0,0-.22.444.432.432,0,0,0,.129.336.552.552,0,0,0,.386.119.853.853,0,0,0,.6-.21.758.758,0,0,0,.228-.588v-.281Zm-10.249,1.33a.966.966,0,0,1-.268-.729.856.856,0,0,1,.373-.756,2.145,2.145,0,0,1,1.133-.279l.56-.017v-.173a.657.657,0,0,0-.145-.464.591.591,0,0,0-.45-.154,1.56,1.56,0,0,0-.477.073,3.843,3.843,0,0,0-.439.173l-.223-.491a2.388,2.388,0,0,1,.577-.21,2.677,2.677,0,0,1,.592-.072,1.4,1.4,0,0,1,.933.27,1.055,1.055,0,0,1,.315.846v2.182H73.58l-.138-.451h-.023a1.338,1.338,0,0,1-.472.4,1.5,1.5,0,0,1-.609.107A1.033,1.033,0,0,1,71.592-718.336Zm1.375-1.33a1.418,1.418,0,0,0-.707.163.493.493,0,0,0-.22.444.432.432,0,0,0,.129.336.551.551,0,0,0,.386.119.853.853,0,0,0,.6-.21.758.758,0,0,0,.228-.588v-.281Zm-7.824,1.148a1.678,1.678,0,0,1-.426-1.215,1.834,1.834,0,0,1,.4-1.247,1.365,1.365,0,0,1,1.087-.455,1.333,1.333,0,0,1,1.013.39,1.488,1.488,0,0,1,.373,1.072v.373H65.427a1.062,1.062,0,0,0,.255.725.889.889,0,0,0,.677.253,2.514,2.514,0,0,0,.535-.054,2.834,2.834,0,0,0,.532-.18v.559a2.128,2.128,0,0,1-.51.17,3.117,3.117,0,0,1-.589.05A1.571,1.571,0,0,1,65.144-718.519Zm.531-2.187a.985.985,0,0,0-.236.606H66.91a.9.9,0,0,0-.193-.607.661.661,0,0,0-.516-.206A.691.691,0,0,0,65.675-720.706Zm-31.585,1.6v-1.746h-.442v-.305l.474-.252.235-.686h.425v.721H35.7v.522h-.923v1.734a.487.487,0,0,0,.124.367.453.453,0,0,0,.327.119,1.668,1.668,0,0,0,.5-.079v.518a1.4,1.4,0,0,1-.294.084,2.028,2.028,0,0,1-.374.034Q34.091-718.078,34.09-719.109Zm-7.458.826a1.35,1.35,0,0,1-.536-.589,2,2,0,0,1-.188-.89,1.753,1.753,0,0,1,.405-1.23,1.464,1.464,0,0,1,1.139-.443,1.428,1.428,0,0,1,1.113.453,1.747,1.747,0,0,1,.41,1.22,1.768,1.768,0,0,1-.408,1.239,1.457,1.457,0,0,1-1.134.445A1.55,1.55,0,0,1,26.632-718.283Zm.18-2.3a1.458,1.458,0,0,0-.2.824q0,1.122.829,1.122t.821-1.122q0-1.111-.826-1.111A.7.7,0,0,0,26.812-720.586ZM20-719.109v-1.746h-.443v-.305l.475-.252.234-.686h.425v.721h.923v.522H20.69v1.734a.487.487,0,0,0,.124.367.456.456,0,0,0,.327.119,1.659,1.659,0,0,0,.5-.079v.518a1.385,1.385,0,0,1-.294.084,2.021,2.021,0,0,1-.373.034Q20-718.078,20-719.109Zm-3.613.738a1.214,1.214,0,0,1-.29-.887v-2.119h.694v2a.863.863,0,0,0,.153.558.579.579,0,0,0,.477.186.761.761,0,0,0,.637-.259,1.428,1.428,0,0,0,.2-.868v-1.615h.692v3.24H18.41l-.1-.425h-.035a.969.969,0,0,1-.409.355,1.363,1.363,0,0,1-.6.13A1.188,1.188,0,0,1,16.386-718.371Zm-14.709.035a.966.966,0,0,1-.268-.729.856.856,0,0,1,.373-.756,2.146,2.146,0,0,1,1.134-.279l.559-.017v-.173a.653.653,0,0,0-.145-.464.59.59,0,0,0-.449-.154,1.561,1.561,0,0,0-.478.073,3.844,3.844,0,0,0-.439.173l-.223-.491a2.4,2.4,0,0,1,.578-.21,2.663,2.663,0,0,1,.591-.072,1.4,1.4,0,0,1,.933.27,1.055,1.055,0,0,1,.315.846v2.182H3.666l-.138-.451H3.5a1.33,1.33,0,0,1-.472.4,1.5,1.5,0,0,1-.609.107A1.033,1.033,0,0,1,1.678-718.336Zm1.376-1.33a1.42,1.42,0,0,0-.708.163.5.5,0,0,0-.22.444.432.432,0,0,0,.129.336.553.553,0,0,0,.387.119.856.856,0,0,0,.6-.21.76.76,0,0,0,.227-.588v-.281Zm-10.286,1.383a1.35,1.35,0,0,1-.536-.589,2,2,0,0,1-.187-.89,1.753,1.753,0,0,1,.4-1.23,1.464,1.464,0,0,1,1.139-.443,1.428,1.428,0,0,1,1.113.453,1.747,1.747,0,0,1,.41,1.22,1.768,1.768,0,0,1-.408,1.239,1.457,1.457,0,0,1-1.134.445A1.55,1.55,0,0,1-7.232-718.283Zm.18-2.3a1.458,1.458,0,0,0-.2.824q0,1.122.83,1.122t.82-1.122q0-1.111-.826-1.111A.7.7,0,0,0-7.052-720.586Zm-26.377,2.25a.963.963,0,0,1-.268-.729.856.856,0,0,1,.373-.756,2.145,2.145,0,0,1,1.133-.279l.56-.017v-.173a.657.657,0,0,0-.145-.464.592.592,0,0,0-.45-.154,1.56,1.56,0,0,0-.477.073,3.858,3.858,0,0,0-.44.173l-.222-.491a2.388,2.388,0,0,1,.577-.21,2.671,2.671,0,0,1,.592-.072,1.4,1.4,0,0,1,.933.27,1.055,1.055,0,0,1,.315.846v2.182h-.492l-.138-.451H-31.6a1.338,1.338,0,0,1-.472.4,1.5,1.5,0,0,1-.61.107A1.032,1.032,0,0,1-33.43-718.336Zm1.375-1.33a1.418,1.418,0,0,0-.707.163.494.494,0,0,0-.221.444.432.432,0,0,0,.13.336.551.551,0,0,0,.386.119.853.853,0,0,0,.6-.21.761.761,0,0,0,.228-.588v-.281Zm-17.78,1.383a1.353,1.353,0,0,1-.535-.589,2,2,0,0,1-.188-.89,1.753,1.753,0,0,1,.405-1.23,1.464,1.464,0,0,1,1.139-.443,1.428,1.428,0,0,1,1.113.453,1.747,1.747,0,0,1,.41,1.22,1.768,1.768,0,0,1-.408,1.239,1.459,1.459,0,0,1-1.134.445A1.555,1.555,0,0,1-49.835-718.283Zm.181-2.3a1.458,1.458,0,0,0-.2.824q0,1.122.829,1.122t.821-1.122q0-1.111-.826-1.111A.7.7,0,0,0-49.654-720.586Zm-6.813,1.477v-1.746h-.443v-.305l.474-.252.235-.686h.425v.721h.922v.522h-.922v1.734a.487.487,0,0,0,.124.367.453.453,0,0,0,.327.119,1.664,1.664,0,0,0,.5-.079v.518a1.4,1.4,0,0,1-.294.084,2.028,2.028,0,0,1-.374.034Q-56.467-718.078-56.467-719.109Zm-3.613.738a1.214,1.214,0,0,1-.29-.887v-2.119h.694v2a.869.869,0,0,0,.152.558.582.582,0,0,0,.478.186.761.761,0,0,0,.637-.259,1.428,1.428,0,0,0,.2-.868v-1.615h.692v3.24h-.543l-.1-.425h-.035a.974.974,0,0,1-.409.355,1.363,1.363,0,0,1-.6.13A1.188,1.188,0,0,1-60.08-718.371Zm-30.358-.148a1.678,1.678,0,0,1-.426-1.215,1.834,1.834,0,0,1,.4-1.247,1.365,1.365,0,0,1,1.087-.455,1.333,1.333,0,0,1,1.013.39,1.488,1.488,0,0,1,.373,1.072v.373h-2.16a1.067,1.067,0,0,0,.256.725.889.889,0,0,0,.677.253,2.514,2.514,0,0,0,.535-.054,2.834,2.834,0,0,0,.532-.18v.559a2.128,2.128,0,0,1-.51.17,3.117,3.117,0,0,1-.589.05A1.571,1.571,0,0,1-90.437-718.519Zm.531-2.187a.985.985,0,0,0-.236.606h1.471a.9.9,0,0,0-.194-.607.661.661,0,0,0-.516-.206A.691.691,0,0,0-89.906-720.706Zm-9.94,2.37a.963.963,0,0,1-.268-.729.857.857,0,0,1,.372-.756,2.151,2.151,0,0,1,1.134-.279l.56-.017v-.173a.657.657,0,0,0-.145-.464.592.592,0,0,0-.45-.154,1.565,1.565,0,0,0-.478.073,3.843,3.843,0,0,0-.439.173l-.222-.491a2.388,2.388,0,0,1,.577-.21,2.663,2.663,0,0,1,.591-.072,1.4,1.4,0,0,1,.933.27,1.052,1.052,0,0,1,.315.846v2.182h-.492l-.138-.451h-.023a1.322,1.322,0,0,1-.472.4,1.5,1.5,0,0,1-.609.107A1.029,1.029,0,0,1-99.847-718.336Zm1.375-1.33a1.418,1.418,0,0,0-.707.163.494.494,0,0,0-.221.444.435.435,0,0,0,.129.336.555.555,0,0,0,.387.119.853.853,0,0,0,.6-.21.76.76,0,0,0,.227-.588v-.281Zm-13.395,1.383a1.355,1.355,0,0,1-.536-.589,2.015,2.015,0,0,1-.187-.89,1.757,1.757,0,0,1,.4-1.23,1.467,1.467,0,0,1,1.14-.443,1.43,1.43,0,0,1,1.113.453,1.751,1.751,0,0,1,.41,1.22,1.771,1.771,0,0,1-.407,1.239,1.46,1.46,0,0,1-1.134.445A1.553,1.553,0,0,1-111.866-718.283Zm.18-2.3a1.466,1.466,0,0,0-.194.824q0,1.122.829,1.122t.821-1.122q0-1.111-.826-1.111A.7.7,0,0,0-111.686-720.586Zm-6.813,1.477v-1.746h-.442v-.305l.474-.252.235-.686h.425v.721h.923v.522h-.923v1.734a.487.487,0,0,0,.124.367.453.453,0,0,0,.327.119,1.664,1.664,0,0,0,.5-.079v.518a1.4,1.4,0,0,1-.294.084,2.028,2.028,0,0,1-.373.034Q-118.5-718.078-118.5-719.109Zm-3.612.738a1.214,1.214,0,0,1-.291-.887v-2.119h.695v2a.864.864,0,0,0,.152.558.582.582,0,0,0,.478.186.761.761,0,0,0,.637-.259,1.428,1.428,0,0,0,.2-.868v-1.615h.691v3.24h-.542l-.1-.425h-.035a.971.971,0,0,1-.409.355,1.357,1.357,0,0,1-.6.13A1.187,1.187,0,0,1-122.111-718.371Zm-32.279-.148a1.675,1.675,0,0,1-.427-1.215,1.834,1.834,0,0,1,.4-1.247,1.364,1.364,0,0,1,1.086-.455,1.335,1.335,0,0,1,1.014.39,1.492,1.492,0,0,1,.372,1.072v.373h-2.159a1.067,1.067,0,0,0,.255.725.891.891,0,0,0,.677.253,2.5,2.5,0,0,0,.535-.054,2.812,2.812,0,0,0,.532-.18v.559a2.121,2.121,0,0,1-.509.17,3.126,3.126,0,0,1-.589.05A1.569,1.569,0,0,1-154.391-718.519Zm.53-2.187a.991.991,0,0,0-.236.606h1.471a.894.894,0,0,0-.193-.607.661.661,0,0,0-.516-.206A.691.691,0,0,0-153.86-720.706Zm-9.941,2.37a.966.966,0,0,1-.268-.729.856.856,0,0,1,.373-.756,2.145,2.145,0,0,1,1.133-.279l.56-.017v-.173a.657.657,0,0,0-.145-.464.591.591,0,0,0-.45-.154,1.56,1.56,0,0,0-.477.073,3.859,3.859,0,0,0-.44.173l-.222-.491a2.388,2.388,0,0,1,.577-.21,2.677,2.677,0,0,1,.592-.072,1.4,1.4,0,0,1,.933.27,1.055,1.055,0,0,1,.315.846v2.182h-.492l-.138-.451h-.023a1.338,1.338,0,0,1-.472.4,1.5,1.5,0,0,1-.609.107A1.033,1.033,0,0,1-163.8-718.336Zm1.375-1.33a1.418,1.418,0,0,0-.707.163.494.494,0,0,0-.221.444.432.432,0,0,0,.13.336.551.551,0,0,0,.386.119.853.853,0,0,0,.6-.21.758.758,0,0,0,.228-.588v-.281Zm-14.144,1.383a1.348,1.348,0,0,1-.536-.589,2,2,0,0,1-.188-.89,1.757,1.757,0,0,1,.4-1.23,1.467,1.467,0,0,1,1.14-.443,1.428,1.428,0,0,1,1.113.453,1.747,1.747,0,0,1,.41,1.22,1.767,1.767,0,0,1-.407,1.239,1.46,1.46,0,0,1-1.134.445A1.553,1.553,0,0,1-176.57-718.283Zm.18-2.3a1.466,1.466,0,0,0-.194.824q0,1.122.829,1.122t.821-1.122q0-1.111-.826-1.111A.706.706,0,0,0-176.39-720.586Zm-57.519,2.3a1.355,1.355,0,0,1-.536-.589,2,2,0,0,1-.187-.89,1.757,1.757,0,0,1,.4-1.23,1.466,1.466,0,0,1,1.139-.443,1.427,1.427,0,0,1,1.113.453,1.747,1.747,0,0,1,.41,1.22,1.771,1.771,0,0,1-.407,1.239,1.46,1.46,0,0,1-1.134.445A1.551,1.551,0,0,1-233.909-718.283Zm.18-2.3a1.466,1.466,0,0,0-.194.824q0,1.122.829,1.122t.82-1.122q0-1.111-.826-1.111A.7.7,0,0,0-233.729-720.586Zm364.089,2.449V-722.7h.688v4.558Zm-5.153,0v-3.24h.689v3.24Zm-35.39,0-1.039-1.42-.378.31v1.11h-.683V-722.7H88.4v2.224l-.035.624h.017l.39-.486.978-1.043h.794l-1.3,1.391,1.386,1.849Zm-3.75,0v-1.992a.872.872,0,0,0-.15-.56.582.582,0,0,0-.479-.185.762.762,0,0,0-.639.258,1.421,1.421,0,0,0-.2.864v1.614h-.688v-3.24h.539l.1.425h.035a.954.954,0,0,1,.416-.357,1.4,1.4,0,0,1,.6-.126,1.04,1.04,0,0,1,1.166,1.186v2.112Zm-6.984,0-1.025-1.711h-.691v1.711h-.7v-4.283h1.21a1.989,1.989,0,0,1,1.228.31,1.117,1.117,0,0,1,.4.938,1.171,1.171,0,0,1-.833,1.139l1.21,1.9Zm-1.716-2.29h.486a1.11,1.11,0,0,0,.709-.182.66.66,0,0,0,.22-.539.579.579,0,0,0-.238-.521,1.293,1.293,0,0,0-.715-.158h-.463Zm-7.16,2.29-.8-1.212-.8,1.212h-.779l1.139-1.655-1.087-1.585h.786l.738,1.134.744-1.134h.779l-1.09,1.585,1.146,1.655Zm-6.967,0V-722.7h.688v4.558Zm-1.237,0-.427-1.189H59.936l-.418,1.189h-.739l1.6-4.3h.761l1.6,4.3Zm-1.473-2.909-.387,1.116H61.39l-.4-1.166c-.03-.078-.07-.2-.122-.369s-.087-.292-.107-.37A6.613,6.613,0,0,1,60.529-721.046Zm-28.175,2.909v-3.24h.689v3.24Zm-2.587,0v-3.24h.539l.09.571h.036a1.281,1.281,0,0,1,.42-.46,1,1,0,0,1,.558-.17,1.64,1.64,0,0,1,.343.03l-.068.642a1.309,1.309,0,0,0-.305-.036.881.881,0,0,0-.67.27.978.978,0,0,0-.256.7v1.693Zm-5.315,0v-1.992a.871.871,0,0,0-.151-.56.582.582,0,0,0-.479-.185.761.761,0,0,0-.637.259,1.428,1.428,0,0,0-.2.869v1.608h-.688V-722.7h.688v1.157a5.206,5.206,0,0,1-.036.595h.044a.955.955,0,0,1,.391-.364,1.264,1.264,0,0,1,.584-.129,1.045,1.045,0,0,1,1.178,1.186v2.112Zm-9.562,0-.428-1.189H12.824l-.419,1.189h-.738l1.6-4.3h.761l1.6,4.3Zm-1.474-2.909-.386,1.116h1.247l-.4-1.166c-.029-.078-.069-.2-.122-.369s-.087-.292-.107-.37A6.449,6.449,0,0,1,13.415-721.046Zm-4.465,2.909v-1.992a.877.877,0,0,0-.15-.56.583.583,0,0,0-.48-.185.761.761,0,0,0-.638.258,1.421,1.421,0,0,0-.2.864v1.614H6.791v-3.24h.539l.1.425h.035a.954.954,0,0,1,.416-.357,1.4,1.4,0,0,1,.6-.126,1.04,1.04,0,0,1,1.166,1.186v2.112Zm-3.831,0v-3.24h.688v3.24Zm-5.13,0v-2a.9.9,0,0,0-.142-.554.523.523,0,0,0-.441-.184.686.686,0,0,0-.588.25,1.292,1.292,0,0,0-.186.769v1.716h-.691v-2a.9.9,0,0,0-.14-.554.518.518,0,0,0-.439-.184.672.672,0,0,0-.585.259,1.529,1.529,0,0,0-.185.863v1.614H-4.1v-3.24h.539l.1.425h.035a.9.9,0,0,1,.391-.357,1.263,1.263,0,0,1,.563-.126.986.986,0,0,1,.991.51h.047a.988.988,0,0,1,.4-.375,1.28,1.28,0,0,1,.6-.135,1.087,1.087,0,0,1,.845.293,1.3,1.3,0,0,1,.266.893v2.112Zm-12.082,0v-4.283h1.325a2.19,2.19,0,0,1,1.59.551,2.058,2.058,0,0,1,.569,1.55A2.131,2.131,0,0,1-9.2-718.7a2.362,2.362,0,0,1-1.7.561Zm.7-.589h.5a1.377,1.377,0,0,0,1.546-1.57q0-1.538-1.438-1.538h-.607Zm-16.923.589V-722.7h.689v4.558Zm-1.673,0v-3.24h.689v3.24Zm-5.13,0v-2a.892.892,0,0,0-.142-.554.521.521,0,0,0-.44-.184.685.685,0,0,0-.588.25,1.292,1.292,0,0,0-.186.769v1.716h-.691v-2a.9.9,0,0,0-.14-.554.519.519,0,0,0-.44-.184.67.67,0,0,0-.584.259,1.521,1.521,0,0,0-.186.863v1.614h-.688v-3.24h.539l.1.425h.035a.9.9,0,0,1,.391-.357,1.267,1.267,0,0,1,.564-.126.985.985,0,0,1,.99.51h.047a.99.99,0,0,1,.405-.375,1.28,1.28,0,0,1,.6-.135,1.09,1.09,0,0,1,.845.293,1.3,1.3,0,0,1,.265.893v2.112Zm-7.362,0v-4.283h2.423v.592h-1.723v1.166h1.615v.587h-1.615v1.345h1.723v.594Zm-4.218,0v-3.24h.538l.091.571h.035a1.291,1.291,0,0,1,.421-.46,1,1,0,0,1,.558-.17,1.64,1.64,0,0,1,.343.03l-.067.642a1.309,1.309,0,0,0-.305-.036.881.881,0,0,0-.67.27.974.974,0,0,0-.257.7v1.693Zm-5.315,0v-1.992a.871.871,0,0,0-.151-.56.582.582,0,0,0-.479-.185.761.761,0,0,0-.637.259,1.427,1.427,0,0,0-.2.869v1.608h-.688V-722.7h.688v1.157a5.409,5.409,0,0,1-.035.595h.044a.955.955,0,0,1,.391-.364,1.264,1.264,0,0,1,.584-.129,1.045,1.045,0,0,1,1.178,1.186v2.112Zm-9.562,0L-62-719.326h-1.637l-.419,1.189H-64.8l1.6-4.3h.762l1.6,4.3Zm-1.474-2.909-.386,1.116h1.247l-.4-1.166c-.029-.078-.069-.2-.122-.369s-.087-.292-.107-.37A6.448,6.448,0,0,1-63.05-721.046Zm-29.269,2.909v-2a.9.9,0,0,0-.142-.554.523.523,0,0,0-.441-.184.686.686,0,0,0-.588.25,1.3,1.3,0,0,0-.185.769v1.716h-.691v-2a.9.9,0,0,0-.141-.554.518.518,0,0,0-.439-.184.669.669,0,0,0-.584.259,1.521,1.521,0,0,0-.186.863v1.614h-.688v-3.24h.539l.1.425h.035a.9.9,0,0,1,.392-.357,1.267,1.267,0,0,1,.564-.126.985.985,0,0,1,.99.51h.047a.988.988,0,0,1,.4-.375,1.283,1.283,0,0,1,.6-.135,1.087,1.087,0,0,1,.845.293,1.294,1.294,0,0,1,.265.893v2.112Zm-9.483,0-2.107-3.413h-.023l.015.191q.041.544.04,1v2.226h-.635v-4.283h.85l2.1,3.4h.017c0-.045-.012-.209-.023-.49s-.017-.5-.017-.661v-2.245h.642v4.283Zm-6.929,0v-3.24h.539l.091.571h.035a1.289,1.289,0,0,1,.42-.46,1,1,0,0,1,.558-.17,1.64,1.64,0,0,1,.343.03l-.068.642a1.3,1.3,0,0,0-.3-.036.881.881,0,0,0-.67.27.974.974,0,0,0-.257.7v1.693Zm-5.314,0v-1.992a.877.877,0,0,0-.15-.56.584.584,0,0,0-.48-.185.761.761,0,0,0-.637.259,1.434,1.434,0,0,0-.2.869v1.608h-.688V-722.7h.688v1.157a5.409,5.409,0,0,1-.035.595h.044a.959.959,0,0,1,.391-.364,1.27,1.27,0,0,1,.585-.129,1.045,1.045,0,0,1,1.177,1.186v2.112Zm-9.562,0-.427-1.189h-1.638l-.419,1.189h-.738l1.6-4.3h.761l1.6,4.3Zm-1.473-2.909-.387,1.116h1.248l-.4-1.166c-.03-.078-.07-.2-.122-.369s-.087-.292-.107-.37A6.613,6.613,0,0,1-125.082-721.046Zm-31.191,2.909v-2a.892.892,0,0,0-.142-.554.521.521,0,0,0-.44-.184.685.685,0,0,0-.588.25,1.292,1.292,0,0,0-.186.769v1.716h-.691v-2a.9.9,0,0,0-.14-.554.519.519,0,0,0-.44-.184.67.67,0,0,0-.584.259,1.521,1.521,0,0,0-.186.863v1.614h-.688v-3.24h.539l.1.425h.035a.9.9,0,0,1,.391-.357,1.267,1.267,0,0,1,.564-.126.985.985,0,0,1,.99.51h.047a.99.99,0,0,1,.4-.375,1.28,1.28,0,0,1,.6-.135,1.09,1.09,0,0,1,.845.293,1.3,1.3,0,0,1,.265.893v2.112Zm-9.483,0-2.106-3.413h-.023l.014.191c.027.363.041.695.041,1v2.226h-.636v-4.283h.85l2.1,3.4h.018c0-.045-.012-.209-.023-.49s-.018-.5-.018-.661v-2.245h.642v4.283Zm-13.017,0V-722.7h.688v4.558Zm-3.887,0v-4.283h1.271a2.411,2.411,0,0,1,1.279.258.9.9,0,0,1,.394.815.981.981,0,0,1-.193.624.858.858,0,0,1-.556.313v.03a1.1,1.1,0,0,1,.663.336,1.014,1.014,0,0,1,.212.678,1.1,1.1,0,0,1-.4.9,1.741,1.741,0,0,1-1.121.326Zm.7-.589h.743a1.1,1.1,0,0,0,.664-.168.623.623,0,0,0,.224-.532.565.565,0,0,0-.229-.495,1.215,1.215,0,0,0-.695-.161h-.708Zm0-1.925h.673a1.153,1.153,0,0,0,.642-.139.532.532,0,0,0,.2-.473.474.474,0,0,0-.219-.437,1.359,1.359,0,0,0-.693-.135h-.606Zm-33.085,2.514-1.04-1.42-.378.31v1.11h-.683V-722.7h.683v2.224l-.035.624h.017l.39-.486.978-1.043h.794l-1.3,1.391,1.386,1.849Zm-3.749,0v-1.992a.871.871,0,0,0-.151-.56.582.582,0,0,0-.479-.185.762.762,0,0,0-.639.258,1.421,1.421,0,0,0-.2.864v1.614h-.688v-3.24h.539l.1.425h.035a.954.954,0,0,1,.416-.357,1.4,1.4,0,0,1,.6-.126,1.04,1.04,0,0,1,1.166,1.186v2.112Zm-3.832,0v-3.24h.689v3.24Zm-3.179,0v-4.283h.7v3.683h1.813v.6Zm-10.307,0V-722.7h.688v4.558Zm-3.888,0v-4.283h1.272a2.413,2.413,0,0,1,1.279.258.9.9,0,0,1,.394.815.986.986,0,0,1-.193.624.858.858,0,0,1-.557.313v.03a1.105,1.105,0,0,1,.664.336,1.014,1.014,0,0,1,.212.678,1.1,1.1,0,0,1-.4.9,1.736,1.736,0,0,1-1.12.326Zm.7-.589h.744a1.092,1.092,0,0,0,.663-.168.623.623,0,0,0,.224-.532.565.565,0,0,0-.228-.495,1.217,1.217,0,0,0-.695-.161h-.709Zm0-1.925h.674a1.155,1.155,0,0,0,.642-.139.532.532,0,0,0,.2-.473A.474.474,0,0,0-238-721.7a1.361,1.361,0,0,0-.693-.135h-.607Zm364.567-1.308a.374.374,0,0,1-.1-.277.379.379,0,0,1,.1-.284.392.392,0,0,1,.288-.1.383.383,0,0,1,.283.1.379.379,0,0,1,.1.284.374.374,0,0,1-.1.277.379.379,0,0,1-.283.1A.388.388,0,0,1,125.267-721.958Zm-92.853,0a.374.374,0,0,1-.1-.277.379.379,0,0,1,.1-.284.392.392,0,0,1,.288-.1.383.383,0,0,1,.283.1.379.379,0,0,1,.1.284.374.374,0,0,1-.1.277.379.379,0,0,1-.283.1A.388.388,0,0,1,32.414-721.958Zm-27.235,0a.373.373,0,0,1-.1-.277.379.379,0,0,1,.1-.284.394.394,0,0,1,.289-.1.386.386,0,0,1,.283.1.379.379,0,0,1,.1.284.373.373,0,0,1-.1.277.382.382,0,0,1-.283.1A.391.391,0,0,1,5.179-721.958Zm-35.107,0a.373.373,0,0,1-.1-.277.379.379,0,0,1,.1-.284.394.394,0,0,1,.289-.1.386.386,0,0,1,.283.1.379.379,0,0,1,.1.284.373.373,0,0,1-.1.277.382.382,0,0,1-.283.1A.391.391,0,0,1-29.929-721.958Zm-192.639,0a.377.377,0,0,1-.1-.277.382.382,0,0,1,.1-.284.394.394,0,0,1,.289-.1.384.384,0,0,1,.283.1.379.379,0,0,1,.1.284.374.374,0,0,1-.1.277.381.381,0,0,1-.283.1A.391.391,0,0,1-222.567-721.958Z" transform="translate(272.459 785.441)" fill="#263238"></path></g></g></svg>